<?xml version="1.0" encoding="UTF-8" standalone="no"?>
<!-- Created with Inkscape (http://www.inkscape.org/) -->

<svg
   width="36.533443mm"
   height="40.591862mm"
   viewBox="0 0 36.533443 40.591862"
   version="1.1"
   id="svg1"
   xml:space="preserve"
   xmlns="http://www.w3.org/2000/svg"
   xmlns:svg="http://www.w3.org/2000/svg"><defs
     id="defs1" /><g
     id="layer1"
     transform="translate(-86.538401,-132.00087)"><g
       id="g1"
       transform="matrix(0.26458333,0,0,0.26458333,78.510036,122.07904)"><circle
         cx="100"
         cy="100"
         r="60"
         stroke-width="4"
         stroke="#000000"
         fill="#80e0ff"
         fill-opacity="1"
         id="circle1" /><circle
         cx="100"
         cy="100"
         r="60"
         stroke-width="5"
         stroke-dasharray="8, 12"
         stroke="#efefef"
         fill="none"
         id="circle2" /></g><g
       id="g2"
       transform="matrix(0.33830343,0,0,0.33830343,72.018005,120.02502)"><path
         d="m 60,120 h 80 m 0,-40 H 60 M 100,50 135.355,64.645 150,100 135.355,135.355 100,150 64.645,135.355 50,100 64.645,64.645 Z"
         stroke-width="2"
         stroke="#dee2e6"
         fill="none"
         id="path1"
         style="display:none" /><path
         d="M 25,50 H 175 V 150 H 25 Z"
         stroke-width="4"
         stroke="#dee2e6"
         fill="#80e0ff"
         fill-opacity="0"
         id="path2"
         style="display:none" /><path
         d="m 90,105 h 20 v 0 m -25,15 15,-30 15,30 M 60,80 85,90 V 80 l 15,10 15,-10 v 10 l 25,-10"
         stroke-width="4"
         stroke="#000000"
         fill="none"
         id="path3"
         style="display:inline" /><path
         d="m 85,48 v -8 h 30 v 8 l -15,-2 z"
         stroke-width="4"
         stroke="#dee2e6"
         fill="#dee2e6"
         id="path4"
         style="display:none" /></g><g
       id="g3"
       transform="matrix(0.35139176,0,0,0.35139176,71.459952,117.73634)"><path
         d="m 60,120 h 80 m 0,-40 H 60 M 100,50 135.355,64.645 150,100 135.355,135.355 100,150 64.645,135.355 50,100 64.645,64.645 Z"
         stroke-width="2"
         stroke="#dee2e6"
         fill="none"
         id="path1-3"
         style="display:none" /><path
         d="M 25,50 H 175 V 150 H 25 Z"
         stroke-width="4"
         stroke="#dee2e6"
         fill="#80e0ff"
         fill-opacity="0"
         id="path2-6"
         style="display:none" /><path
         d="m 85,48 v -8 h 30 v 8 l -15,-2 z"
         stroke-width="4"
         stroke="#dee2e6"
         fill="#dee2e6"
         id="path3-7"
         style="display:none" /><text
         x="100"
         y="77"
         text-anchor="middle"
         font-size="30px"
         font-family="Arial"
         font-weight="bold"
         stroke-width="4"
         stroke="none"
         fill="#000000"
         id="text3">CN</text></g><g
       id="g4"
       transform="matrix(0.4936952,0,0,0.4936952,55.435605,107.42496)"><path
         d="m 60,120 h 80 m 0,-40 H 60 M 100,50 135.355,64.645 150,100 135.355,135.355 100,150 64.645,135.355 50,100 64.645,64.645 Z"
         stroke-width="2"
         stroke="#dee2e6"
         fill="none"
         id="path1-5"
         style="display:none" /><path
         d="M 25,50 H 175 V 150 H 25 Z"
         stroke-width="4"
         stroke="#dee2e6"
         fill="#80e0ff"
         fill-opacity="0"
         id="path2-3"
         style="display:none" /><circle
         cx="70"
         cy="125"
         r="5"
         stroke-width="4"
         stroke="#000000"
         fill="none"
         id="circle2-5" /><circle
         cx="100"
         cy="125"
         r="5"
         stroke-width="4"
         stroke="#000000"
         fill="none"
         id="circle3"
         style="display:none" /><circle
         cx="130"
         cy="125"
         r="5"
         stroke-width="4"
         stroke="#000000"
         fill="none"
         id="circle4" /></g><rect
       style="fill:#000000;stroke-width:0.264583"
       id="rect4"
       width="34.714165"
       height="2.5252352"
       x="87.163612"
       y="163.035" /></g></svg>
