<svg xmlns="http://www.w3.org/2000/svg" version="1.2" baseProfile="tiny" width="128" height="128" viewBox="36 36 128 128"><circle cx="100" cy="100" r="60" stroke-width="4" stroke="black" fill="rgb(128,224,255)" fill-opacity="1" ></circle><circle cx="100" cy="100" r="60" stroke-width="5" stroke-dasharray="8,12" stroke="rgb(239, 239, 239)" fill="none" ></circle><text x="100" y="115" text-anchor="middle" font-size="42" font-family="Arial" font-weight="bold" stroke-width="4" stroke="none" fill="black" >GE</text><g transform="translate(52,32)" ><g transform="scale(0.5)" ><path d="M25,60 c10,0 0,10 10,10 c10,0 0,-10 10,-10 c10,0 0,10 10,10 c10,0 0,-10 10,-10 c10,0 0,10 10,10 c10,0 0,-10 10,-10 c10,0 0,10 10,10 c10,0 0,-10 10,-10 c10,0 0,10 10,10 c10,0 0,-10 10,-10 c10,0 0,10 10,10 c10,0 0,-10 10,-10 c10,0 0,10 10,10 c10,0 0,-10 10,-10 c10,0 0,10 10,10 M25,75 c10,0 0,10 10,10 c10,0 0,-10 10,-10 c10,0 0,10 10,10 c10,0 0,-10 10,-10 c10,0 0,10 10,10 c10,0 0,-10 10,-10 c10,0 0,10 10,10 c10,0 0,-10 10,-10 c10,0 0,10 10,10 c10,0 0,-10 10,-10 c10,0 0,10 10,10 c10,0 0,-10 10,-10 c10,0 0,10 10,10 c10,0 0,-10 10,-10 c10,0 0,10 10,10" stroke-width="4" stroke="black" fill="none" ></path></g></g></svg>