<svg xmlns="http://www.w3.org/2000/svg" version="1.2" baseProfile="tiny" width="83.2" height="93.6" viewBox="36 36 128 144"><circle cx="100" cy="100" r="60" stroke-width="4" stroke="black" fill="rgb(128,224,255)" fill-opacity="1" ></circle><g transform="translate(0,160)" stroke-width="4" stroke="black" fill="none" ><path d="M 53,1 l 94,0" ></path><circle cx="58" cy="8" r="8" ></circle><circle cx="142" cy="8" r="8" ></circle></g><text x="100" y="115" text-anchor="middle" font-size="42" font-family="Arial" font-weight="bold" stroke-width="4" stroke="none" fill="black" >GE</text><g transform="translate(52,32)" ><g transform="scale(0.5)" ><path d="M25,60 c10,0 0,10 10,10 c10,0 0,-10 10,-10 c10,0 0,10 10,10 c10,0 0,-10 10,-10 c10,0 0,10 10,10 c10,0 0,-10 10,-10 c10,0 0,10 10,10 c10,0 0,-10 10,-10 c10,0 0,10 10,10 c10,0 0,-10 10,-10 c10,0 0,10 10,10 c10,0 0,-10 10,-10 c10,0 0,10 10,10 c10,0 0,-10 10,-10 c10,0 0,10 10,10 M25,75 c10,0 0,10 10,10 c10,0 0,-10 10,-10 c10,0 0,10 10,10 c10,0 0,-10 10,-10 c10,0 0,10 10,10 c10,0 0,-10 10,-10 c10,0 0,10 10,10 c10,0 0,-10 10,-10 c10,0 0,10 10,10 c10,0 0,-10 10,-10 c10,0 0,10 10,10 c10,0 0,-10 10,-10 c10,0 0,10 10,10 c10,0 0,-10 10,-10 c10,0 0,10 10,10" stroke-width="4" stroke="black" fill="none" ></path></g></g></svg>