<?xml version="1.0" encoding="UTF-8" standalone="no"?>
<!-- Created with Inkscape (http://www.inkscape.org/) -->

<svg
   width="113.11644mm"
   height="121.97053mm"
   viewBox="0 0 113.11644 121.97053"
   version="1.1"
   id="svg1"
   xml:space="preserve"
   xmlns="http://www.w3.org/2000/svg"
   xmlns:svg="http://www.w3.org/2000/svg"><defs
     id="defs1" /><g
     id="layer1"
     transform="translate(-48.386476,-96.852956)"><g
       id="svgg"
       transform="matrix(0.26458333,0,0,0.26458333,52.360881,95.582953)"><path
         id="path0"
         d="m 164.155,6.39 -0.254,1.59 -6.05,0.11 -6.051,0.11 -0.125,1.3 -0.126,1.3 -5.274,0.005 c -6.714,0.007 -7.075,0.101 -7.075,1.842 V 14 h -4.386 c -4.709,0 -5.214,0.23 -5.214,2.374 0,0.761 -0.235,0.826 -3,0.826 h -3 v 1.6 1.6 h -4.557 c -4.899,0 -5.043,0.064 -5.043,2.233 0,0.937 -0.094,0.967 -3,0.967 h -3 v 1.352 1.353 l -3.1,0.347 -3.1,0.348 -0.124,1.277 c -0.112,1.157 -0.263,1.289 -1.6,1.4 -1.388,0.116 -1.483,0.212 -1.599,1.606 L 98.354,32.766 95.477,32.883 92.6,33 92.476,34.5 92.352,36 H 89.656 C 86.673,36 86,36.383 86,38.08 c 0,1.04 -0.114,1.12 -1.6,1.12 h -1.6 v 1.6 1.6 h -1.6 c -1.562,0 -1.6,0.033 -1.6,1.4 0,1.332 -0.067,1.4 -1.395,1.4 -1.319,0 -1.41,0.088 -1.651,1.6 -0.24,1.5 -0.341,1.6 -1.605,1.6 -1.307,0 -1.349,0.05 -1.349,1.6 v 1.6 H 72 70.4 v 1.6 1.6 h -1.6 -1.6 v 1.6 1.6 h -1.6 c -1.557,0 -1.6,0.037 -1.6,1.376 0,1.301 -0.081,1.382 -1.5,1.5 -1.419,0.117 -1.507,0.205 -1.624,1.624 -0.118,1.419 -0.199,1.5 -1.5,1.5 C 58.037,64 58,64.043 58,65.6 v 1.6 h -1.6 -1.6 v 1.6 1.6 H 53.2 51.6 V 72 73.6 H 50 c -1.562,0 -1.6,0.033 -1.6,1.4 0,1.148 -0.149,1.4 -0.826,1.4 -1.473,0 -2.374,0.755 -2.374,1.989 0,1.017 -0.161,1.176 -1.3,1.286 -1.187,0.114 -1.311,0.256 -1.424,1.625 -0.121,1.458 -0.168,1.5 -1.7,1.5 -1.572,0 -1.576,0.004 -1.576,1.6 0,1.486 -0.08,1.6 -1.12,1.6 C 36.383,86 36,86.673 36,89.656 v 2.696 l -1.5,0.124 -1.5,0.124 -0.117,2.877 -0.117,2.877 -1.483,0.123 c -1.394,0.116 -1.49,0.211 -1.606,1.599 -0.111,1.337 -0.243,1.488 -1.4,1.6 L 27,101.8 26.652,104.9 26.305,108 H 24.952 23.6 v 3 c 0,2.906 -0.03,3 -0.967,3 -2.169,0 -2.233,0.144 -2.233,5.043 v 4.557 h -1.6 -1.6 v 3 c 0,2.765 -0.065,3 -0.826,3 -2.144,0 -2.374,0.505 -2.374,5.214 v 4.386 h -1.353 c -1.741,0 -1.835,0.361 -1.842,7.075 L 10.8,151.549 9.5,151.675 8.2,151.8 8.09,157.9 7.979,164 H 7.022 C 4.624,164 4.8,161.15 4.8,200.038 v 35.553 l 1.59,0.254 1.59,0.254 0.11,6.05 0.11,6.051 1.3,0.125 1.3,0.126 0.005,5.274 c 0.007,6.714 0.101,7.075 1.842,7.075 H 14 v 4.386 c 0,4.709 0.23,5.214 2.374,5.214 0.761,0 0.826,0.235 0.826,3 v 3 h 1.6 1.6 v 4.557 c 0,4.899 0.064,5.043 2.233,5.043 0.937,0 0.967,0.094 0.967,3 v 3 h 1.352 1.353 l 0.347,3.1 0.348,3.1 1.277,0.124 c 1.157,0.112 1.289,0.263 1.4,1.6 0.116,1.391 0.209,1.483 1.623,1.6 l 1.5,0.124 v 2.696 c 0,2.983 0.383,3.656 2.08,3.656 1.108,0 1.12,0.027 1.12,2.52 0,2.799 0.407,3.48 2.08,3.48 1.04,0 1.12,0.114 1.12,1.6 v 1.6 h 1.6 1.6 v 1.6 c 0,1.557 0.037,1.6 1.376,1.6 1.301,0 1.382,0.081 1.5,1.5 0.117,1.419 0.205,1.507 1.624,1.624 1.419,0.118 1.5,0.199 1.5,1.5 0,1.339 0.043,1.376 1.6,1.376 h 1.6 v 1.6 1.6 h 1.6 1.6 v 1.6 1.6 h 1.6 1.6 v 1.6 c 0,1.557 0.037,1.6 1.376,1.6 1.301,0 1.382,0.081 1.5,1.5 0.117,1.419 0.205,1.507 1.624,1.624 1.419,0.118 1.5,0.199 1.5,1.5 0,1.339 0.043,1.376 1.6,1.376 h 1.6 v 1.6 1.6 h 1.6 1.6 v 1.6 1.6 h 1.6 1.6 v 1.6 c 0,1.562 0.033,1.6 1.4,1.6 1.148,0 1.4,0.149 1.4,0.826 0,1.486 0.753,2.374 2.014,2.374 1.032,0 1.186,0.145 1.186,1.12 0,1.421 0.659,2.08 2.08,2.08 1.013,0 1.12,0.133 1.12,1.4 0,1.367 0.038,1.4 1.6,1.4 1.486,0 1.6,0.08 1.6,1.12 0,1.697 0.673,2.08 3.656,2.08 h 2.696 l 0.124,1.5 0.124,1.5 2.877,0.117 2.877,0.117 0.123,1.483 c 0.116,1.394 0.211,1.49 1.599,1.606 1.333,0.111 1.489,0.245 1.6,1.384 0.143,1.458 0.9,1.79 4.224,1.853 l 2.1,0.04 v 1.4 1.4 h 3 c 2.906,0 3,0.03 3,0.967 0,2.169 0.144,2.233 5.043,2.233 h 4.557 v 1.6 1.6 h 3 c 2.765,0 3,0.065 3,0.826 0,2.144 0.505,2.374 5.214,2.374 h 4.386 v 1.357 c 0,1.784 0.218,1.843 6.807,1.843 h 5.542 l 0.126,1.3 0.125,1.3 6.1,0.11 6.1,0.111 v 0.957 c 0,2.398 -2.846,2.222 36,2.222 38.846,0 36,0.176 36,-2.222 v -0.957 l 6.1,-0.111 6.1,-0.11 0.125,-1.3 0.126,-1.3 h 5.542 c 6.589,0 6.807,-0.059 6.807,-1.843 V 386 h 4.386 c 4.709,0 5.214,-0.23 5.214,-2.374 0,-0.761 0.235,-0.826 3,-0.826 h 3 v -1.6 -1.6 h 4.557 c 4.899,0 5.043,-0.064 5.043,-2.233 0,-0.937 0.094,-0.967 3,-0.967 h 3 v -1.4 -1.4 h 2.174 c 3.137,0 4.226,-0.507 4.226,-1.966 0,-1.081 0.132,-1.197 1.5,-1.31 1.419,-0.117 1.507,-0.205 1.624,-1.624 l 0.124,-1.5 h 2.696 c 2.983,0 3.656,-0.383 3.656,-2.08 0,-1.108 0.027,-1.12 2.52,-1.12 2.799,0 3.48,-0.407 3.48,-2.08 0,-1.04 0.114,-1.12 1.6,-1.12 1.557,0 1.6,-0.037 1.6,-1.376 0,-1.301 0.081,-1.382 1.5,-1.5 1.414,-0.117 1.507,-0.209 1.623,-1.601 0.115,-1.388 0.212,-1.485 1.6,-1.6 1.392,-0.116 1.484,-0.209 1.601,-1.623 0.118,-1.419 0.199,-1.5 1.5,-1.5 1.339,0 1.376,-0.043 1.376,-1.6 v -1.6 h 1.6 1.6 v -1.6 -1.6 h 1.6 1.6 v -1.6 -1.6 h 1.6 c 1.557,0 1.6,-0.037 1.6,-1.376 0,-1.301 0.081,-1.382 1.5,-1.5 1.419,-0.117 1.507,-0.205 1.624,-1.624 0.118,-1.419 0.199,-1.5 1.5,-1.5 1.339,0 1.376,-0.043 1.376,-1.6 v -1.6 h 1.6 1.6 v -1.6 -1.6 h 1.6 1.6 v -1.6 -1.6 h 1.6 c 1.557,0 1.6,-0.037 1.6,-1.376 0,-1.301 0.081,-1.382 1.5,-1.5 1.414,-0.117 1.507,-0.209 1.623,-1.601 0.115,-1.388 0.212,-1.485 1.6,-1.6 1.392,-0.116 1.484,-0.209 1.601,-1.623 0.118,-1.419 0.199,-1.5 1.5,-1.5 1.339,0 1.376,-0.043 1.376,-1.6 0,-1.486 0.08,-1.6 1.12,-1.6 1.673,0 2.08,-0.681 2.08,-3.48 0,-2.493 0.012,-2.52 1.12,-2.52 1.697,0 2.08,-0.673 2.08,-3.656 v -2.696 l 1.5,-0.124 c 1.419,-0.117 1.507,-0.205 1.624,-1.624 0.113,-1.368 0.229,-1.5 1.31,-1.5 1.459,0 1.966,-1.089 1.966,-4.226 V 292 h 1.4 1.4 v -3 c 0,-2.906 0.03,-3 0.967,-3 2.169,0 2.233,-0.144 2.233,-5.043 V 276.4 h 1.6 1.6 v -3 c 0,-2.765 0.065,-3 0.826,-3 2.144,0 2.374,-0.505 2.374,-5.214 V 260.8 h 1.357 c 1.784,0 1.843,-0.218 1.843,-6.807 v -5.542 l 1.3,-0.126 1.3,-0.125 0.11,-6.051 0.11,-6.05 1.59,-0.254 1.59,-0.254 V 200.038 C 395.2,161.15 395.376,164 392.978,164 h -0.957 l -0.111,-6.1 -0.11,-6.1 -1.3,-0.125 -1.3,-0.126 v -5.542 c 0,-6.589 -0.059,-6.807 -1.843,-6.807 H 386 v -4.386 c 0,-4.709 -0.23,-5.214 -2.374,-5.214 -0.761,0 -0.826,-0.235 -0.826,-3 v -3 h -1.6 -1.6 v -4.557 c 0,-4.899 -0.064,-5.043 -2.233,-5.043 -0.937,0 -0.967,-0.094 -0.967,-3 v -3 h -1.4 -1.4 l -0.04,-2.1 c -0.063,-3.324 -0.395,-4.081 -1.853,-4.224 -1.139,-0.111 -1.273,-0.267 -1.384,-1.6 -0.116,-1.388 -0.212,-1.483 -1.606,-1.599 L 367.234,98.354 367.117,95.477 367,92.6 365.5,92.476 364,92.352 V 89.656 C 364,86.673 363.617,86 361.92,86 c -1.04,0 -1.12,-0.114 -1.12,-1.6 0,-1.562 -0.033,-1.6 -1.4,-1.6 -1.267,0 -1.4,-0.107 -1.4,-1.12 0,-1.421 -0.659,-2.08 -2.08,-2.08 -0.975,0 -1.12,-0.154 -1.12,-1.186 0,-1.261 -0.888,-2.014 -2.374,-2.014 -0.677,0 -0.826,-0.252 -0.826,-1.4 0,-1.367 -0.038,-1.4 -1.6,-1.4 h -1.6 V 72 70.4 h -1.6 -1.6 v -1.6 -1.6 h -1.6 -1.6 v -1.6 c 0,-1.557 -0.037,-1.6 -1.376,-1.6 -1.301,0 -1.382,-0.081 -1.5,-1.5 -0.117,-1.419 -0.205,-1.507 -1.624,-1.624 -1.419,-0.118 -1.5,-0.199 -1.5,-1.5 C 336,58.037 335.957,58 334.4,58 h -1.6 v -1.6 -1.6 h -1.6 -1.6 V 53.2 51.6 H 328 326.4 V 50 c 0,-1.557 -0.037,-1.6 -1.376,-1.6 -1.301,0 -1.382,-0.081 -1.5,-1.5 -0.117,-1.419 -0.205,-1.507 -1.624,-1.624 -1.419,-0.118 -1.5,-0.199 -1.5,-1.5 0,-1.339 -0.043,-1.376 -1.6,-1.376 h -1.6 v -1.6 -1.6 h -1.6 c -1.486,0 -1.6,-0.08 -1.6,-1.12 0,-1.673 -0.681,-2.08 -3.48,-2.08 -2.493,0 -2.52,-0.012 -2.52,-1.12 0,-1.697 -0.673,-2.08 -3.656,-2.08 h -2.696 l -0.124,-1.5 c -0.117,-1.414 -0.209,-1.507 -1.6,-1.623 -1.337,-0.111 -1.488,-0.243 -1.6,-1.4 L 298.2,27 295.1,26.652 292,26.305 V 24.952 23.6 h -3 c -2.906,0 -3,-0.03 -3,-0.967 0,-2.169 -0.144,-2.233 -5.043,-2.233 H 276.4 v -1.6 -1.6 h -3 c -2.765,0 -3,-0.065 -3,-0.826 C 270.4,14.23 269.895,14 265.186,14 H 260.8 v -1.353 c 0,-1.741 -0.361,-1.835 -7.075,-1.842 L 248.451,10.8 248.325,9.5 248.2,8.2 242.149,8.09 236.099,7.98 235.845,6.39 235.591,4.8 H 200 164.409 l -0.254,1.59 M 220.8,18.805 c 2.31,0.23 5.48,0.776 7.044,1.212 1.564,0.436 5.005,1.046 7.646,1.354 3.584,0.419 5.323,0.825 6.853,1.6 1.571,0.796 3.217,1.168 7.045,1.589 3.607,0.398 5.39,0.784 6.416,1.389 0.781,0.461 2.784,1.188 4.451,1.615 1.666,0.427 3.415,1.128 3.887,1.558 0.844,0.77 1.894,1.172 5.458,2.09 0.99,0.255 2.16,0.778 2.6,1.161 0.44,0.383 1.88,0.937 3.2,1.229 2.456,0.545 5.163,1.691 5.578,2.362 0.127,0.206 1.115,0.668 2.196,1.027 1.08,0.359 2.193,0.928 2.471,1.264 0.279,0.335 1.56,1.142 2.847,1.791 1.286,0.65 2.642,1.535 3.012,1.968 0.371,0.432 0.949,0.787 1.285,0.787 0.75,0.002 2.894,1.282 4.001,2.389 0.452,0.452 1.543,1.11 2.426,1.463 0.883,0.353 1.826,0.94 2.095,1.304 0.269,0.363 1.299,1.006 2.289,1.428 0.99,0.421 2.288,1.227 2.885,1.791 0.597,0.563 2.004,1.834 3.127,2.824 1.124,0.99 2.615,2.345 3.315,3.012 0.7,0.667 1.773,1.465 2.384,1.774 0.611,0.308 1.208,0.95 1.328,1.427 0.119,0.476 0.839,1.162 1.598,1.524 0.76,0.362 1.553,1.11 1.762,1.661 0.21,0.551 0.552,1.002 0.762,1.002 0.997,0 9.549,7.778 13.15,11.959 1.6,1.859 3.241,3.612 3.644,3.895 0.404,0.283 0.945,1.021 1.201,1.64 0.257,0.619 0.866,1.301 1.355,1.516 0.489,0.214 1.139,0.957 1.444,1.651 0.306,0.694 0.99,1.459 1.521,1.701 0.531,0.242 1.223,1.056 1.538,1.81 0.315,0.753 0.903,1.475 1.308,1.603 0.405,0.129 1.129,0.933 1.609,1.787 0.48,0.855 1.151,1.661 1.491,1.791 0.34,0.13 1.088,1.274 1.663,2.542 0.574,1.268 1.299,2.456 1.61,2.642 0.31,0.185 0.911,1.143 1.333,2.129 0.423,0.985 1.305,2.328 1.96,2.984 0.656,0.656 1.376,1.874 1.601,2.707 0.224,0.834 0.775,1.848 1.224,2.255 0.449,0.406 1.179,1.559 1.623,2.563 0.444,1.004 1.222,2.275 1.73,2.825 0.507,0.55 1.253,1.945 1.657,3.1 0.404,1.155 0.875,2.1 1.046,2.1 0.532,0 1.416,2.095 1.941,4.6 0.277,1.32 0.912,3.03 1.412,3.8 0.5,0.77 1.202,2.57 1.56,4 0.358,1.43 1.086,3.23 1.618,4 0.532,0.77 1.261,2.57 1.62,4 0.358,1.43 0.98,3.169 1.381,3.864 0.681,1.18 0.925,2.41 2.011,10.114 0.231,1.638 0.757,3.528 1.169,4.2 0.768,1.254 1.214,3.346 2.048,9.6 0.262,1.968 0.72,4.159 1.017,4.87 2.503,5.99 2.443,49.241 -0.077,55.285 -0.306,0.733 -0.749,2.893 -0.985,4.8 -0.819,6.621 -1.234,8.614 -2.025,9.724 -0.554,0.779 -0.971,2.484 -1.378,5.63 -0.761,5.894 -0.933,6.684 -1.77,8.113 -0.386,0.66 -1.007,2.46 -1.38,4 -0.373,1.54 -1.141,3.474 -1.708,4.298 -0.566,0.824 -1.289,2.624 -1.606,4 -0.318,1.376 -1.014,3.075 -1.547,3.775 -0.534,0.701 -0.972,1.601 -0.974,2 -0.008,1.35 -1.206,4.698 -2.188,6.117 -0.536,0.775 -1.259,2.215 -1.605,3.199 -0.347,0.983 -0.964,2.153 -1.372,2.6 -0.409,0.446 -1.211,1.746 -1.782,2.889 -0.572,1.142 -1.286,2.222 -1.588,2.4 -0.301,0.177 -0.766,0.992 -1.032,1.812 -0.267,0.819 -1.192,2.346 -2.057,3.393 -0.864,1.046 -1.572,2.193 -1.572,2.548 0,0.355 -0.385,0.988 -0.856,1.407 -0.471,0.419 -1.333,1.752 -1.915,2.962 -0.924,1.922 -1.849,3.141 -4.244,5.6 -0.322,0.33 -0.9,0.929 -1.285,1.332 -0.385,0.402 -1.375,1.43 -2.2,2.284 -0.825,0.853 -1.5,1.77 -1.5,2.036 0,0.671 -1.212,1.948 -1.848,1.948 -0.288,0 -0.731,0.405 -0.984,0.9 -0.253,0.495 -1.115,1.577 -1.914,2.404 -0.8,0.827 -1.986,2.055 -2.636,2.729 -0.65,0.674 -1.489,1.707 -1.864,2.296 -1.515,2.38 -13.743,14.071 -14.717,14.071 -0.216,0 -0.63,0.493 -0.918,1.095 -0.289,0.602 -0.884,1.163 -1.322,1.246 -0.438,0.084 -1.463,0.806 -2.277,1.605 -0.814,0.8 -2.164,2.036 -3,2.747 -0.836,0.711 -2.15,1.875 -2.92,2.586 -0.77,0.71 -2.39,1.768 -3.6,2.35 -1.21,0.582 -2.543,1.444 -2.962,1.915 -0.419,0.471 -1.052,0.856 -1.407,0.856 -0.355,0 -1.502,0.708 -2.548,1.572 -1.047,0.865 -2.574,1.79 -3.393,2.057 -0.82,0.266 -1.635,0.731 -1.812,1.032 -0.178,0.302 -1.258,1.016 -2.4,1.588 -1.143,0.571 -2.443,1.373 -2.889,1.782 -0.447,0.408 -1.617,1.025 -2.6,1.372 -0.984,0.346 -2.424,1.069 -3.199,1.605 -1.419,0.982 -4.767,2.18 -6.117,2.188 -0.399,0.002 -1.299,0.44 -2,0.974 -0.7,0.533 -2.399,1.229 -3.775,1.547 -1.376,0.317 -3.176,1.04 -4,1.606 -0.824,0.567 -2.758,1.335 -4.298,1.708 -1.54,0.373 -3.343,1.002 -4.008,1.399 -0.739,0.442 -3.444,1.044 -6.977,1.554 -3.909,0.564 -6.422,1.145 -7.792,1.801 -1.113,0.532 -3.103,1.077 -4.423,1.211 -4.145,0.421 -7.88,1.078 -9.163,1.613 -5.959,2.484 -49.264,2.512 -55.189,0.037 -0.711,-0.297 -2.902,-0.755 -4.87,-1.017 -6.254,-0.834 -8.346,-1.28 -9.6,-2.048 -0.672,-0.412 -2.562,-0.938 -4.2,-1.169 -7.704,-1.086 -8.934,-1.33 -10.114,-2.011 -0.695,-0.401 -2.434,-1.023 -3.864,-1.381 -1.43,-0.359 -3.23,-1.088 -4,-1.62 -0.77,-0.532 -2.57,-1.26 -4,-1.618 -1.43,-0.358 -3.23,-1.06 -4,-1.56 -0.77,-0.5 -2.48,-1.135 -3.8,-1.412 -2.505,-0.525 -4.6,-1.409 -4.6,-1.941 0,-0.171 -0.945,-0.642 -2.1,-1.046 -1.155,-0.404 -2.55,-1.15 -3.1,-1.657 -0.55,-0.508 -1.821,-1.286 -2.825,-1.73 -1.004,-0.444 -2.157,-1.174 -2.563,-1.623 -0.407,-0.449 -1.421,-1 -2.255,-1.224 -0.833,-0.225 -2.051,-0.945 -2.707,-1.601 -0.656,-0.655 -1.999,-1.537 -2.984,-1.96 -0.986,-0.422 -1.944,-1.023 -2.129,-1.333 -0.186,-0.311 -1.374,-1.036 -2.642,-1.61 -1.268,-0.575 -2.412,-1.323 -2.542,-1.663 -0.13,-0.34 -0.936,-1.011 -1.791,-1.491 -0.854,-0.48 -1.658,-1.204 -1.787,-1.609 -0.128,-0.405 -0.85,-0.993 -1.603,-1.308 -0.754,-0.315 -1.568,-1.007 -1.81,-1.538 -0.242,-0.531 -1.007,-1.215 -1.701,-1.521 -0.694,-0.305 -1.437,-0.955 -1.651,-1.444 -0.215,-0.489 -0.897,-1.098 -1.516,-1.355 -0.619,-0.256 -1.357,-0.797 -1.64,-1.201 -0.283,-0.403 -2.036,-2.044 -3.895,-3.644 C 72.178,330.31 64.4,321.758 64.4,320.761 c 0,-0.21 -0.451,-0.552 -1.002,-0.762 -0.551,-0.209 -1.299,-1.002 -1.661,-1.762 -0.362,-0.759 -1.048,-1.479 -1.524,-1.598 -0.477,-0.12 -1.119,-0.717 -1.427,-1.328 -0.309,-0.611 -1.107,-1.684 -1.774,-2.384 -0.667,-0.7 -2.022,-2.191 -3.012,-3.315 -0.99,-1.123 -2.261,-2.53 -2.824,-3.127 -0.564,-0.597 -1.37,-1.895 -1.791,-2.885 -0.422,-0.99 -1.065,-2.02 -1.428,-2.289 -0.364,-0.269 -0.951,-1.212 -1.304,-2.095 -0.353,-0.883 -1.011,-1.974 -1.463,-2.426 -1.107,-1.107 -2.387,-3.251 -2.389,-4.001 0,-0.336 -0.355,-0.914 -0.787,-1.285 -0.433,-0.37 -1.318,-1.726 -1.968,-3.012 -0.649,-1.287 -1.456,-2.568 -1.791,-2.847 -0.336,-0.278 -0.905,-1.391 -1.264,-2.471 -0.359,-1.081 -0.821,-2.069 -1.027,-2.196 -0.671,-0.415 -1.817,-3.122 -2.362,-5.578 -0.292,-1.32 -0.846,-2.76 -1.229,-3.2 -0.383,-0.44 -0.906,-1.61 -1.161,-2.6 -0.918,-3.564 -1.32,-4.614 -2.09,-5.458 -0.43,-0.472 -1.131,-2.221 -1.558,-3.887 -0.427,-1.667 -1.154,-3.67 -1.615,-4.451 -0.605,-1.026 -0.991,-2.809 -1.389,-6.416 -0.421,-3.828 -0.793,-5.474 -1.589,-7.045 -0.775,-1.53 -1.181,-3.269 -1.6,-6.853 -0.308,-2.641 -0.917,-6.082 -1.353,-7.646 -1.676,-6.013 -2.464,-25.644 -1.648,-41.044 0.447,-8.439 0.671,-10.17 2.173,-16.8 0.324,-1.43 0.778,-4.19 1.009,-6.133 0.261,-2.187 0.801,-4.335 1.417,-5.639 0.644,-1.36 1.15,-3.437 1.431,-5.867 0.239,-2.069 0.526,-4.513 0.638,-5.433 0.111,-0.919 0.541,-2.102 0.955,-2.628 0.413,-0.525 1.07,-2.274 1.459,-3.886 0.389,-1.612 1.208,-3.669 1.82,-4.572 0.612,-0.903 1.322,-2.69 1.578,-3.971 0.256,-1.282 0.89,-2.955 1.408,-3.718 0.518,-0.764 0.943,-1.606 0.945,-1.871 0.007,-1.166 1.624,-5.663 2.313,-6.434 0.417,-0.466 1.164,-1.876 1.661,-3.132 0.497,-1.257 1.184,-2.517 1.528,-2.8 0.343,-0.284 1.024,-1.416 1.513,-2.516 0.489,-1.1 1.259,-2.334 1.713,-2.741 0.453,-0.408 0.931,-1.23 1.062,-1.827 0.131,-0.596 0.951,-1.947 1.823,-3.002 0.871,-1.054 1.584,-2.161 1.584,-2.46 0,-0.298 0.503,-1.133 1.118,-1.856 0.615,-0.723 1.467,-2.124 1.894,-3.114 0.744,-1.728 1.379,-2.532 4.688,-5.935 0.825,-0.848 1.5,-1.734 1.5,-1.968 0,-0.234 0.585,-0.918 1.3,-1.519 0.715,-0.602 1.517,-1.609 1.782,-2.239 0.265,-0.63 0.94,-1.319 1.5,-1.532 0.56,-0.213 1.018,-0.579 1.018,-0.813 0,-0.923 13.199,-14.784 14.085,-14.792 0.156,-0.001 0.997,-0.722 1.868,-1.602 0.871,-0.88 1.826,-1.6 2.121,-1.6 0.295,0 0.714,-0.403 0.931,-0.896 0.217,-0.493 0.966,-1.258 1.664,-1.7 0.697,-0.442 1.46,-1.212 1.694,-1.71 0.234,-0.498 0.923,-1.127 1.531,-1.398 1.08,-0.48 2.054,-1.314 5.726,-4.896 2.641,-2.576 3.978,-3.618 5.629,-4.384 1.016,-0.472 2.425,-1.344 3.13,-1.937 0.705,-0.594 1.519,-1.079 1.808,-1.079 0.289,0 1.389,-0.713 2.443,-1.584 1.055,-0.872 2.406,-1.692 3.002,-1.823 0.597,-0.131 1.419,-0.609 1.827,-1.062 0.407,-0.454 1.641,-1.224 2.741,-1.713 1.1,-0.489 2.232,-1.17 2.516,-1.513 0.283,-0.344 1.543,-1.031 2.8,-1.528 1.256,-0.497 2.666,-1.244 3.132,-1.661 0.771,-0.689 5.268,-2.306 6.434,-2.313 0.265,-0.002 1.107,-0.427 1.871,-0.945 0.763,-0.518 2.436,-1.152 3.718,-1.408 1.281,-0.256 3.068,-0.966 3.971,-1.578 0.903,-0.612 2.948,-1.428 4.545,-1.814 1.596,-0.385 3.377,-1.051 3.958,-1.48 0.783,-0.579 2.442,-0.941 6.427,-1.405 4.172,-0.485 5.737,-0.837 7,-1.578 1.138,-0.667 2.772,-1.092 5.428,-1.414 2.09,-0.253 5.06,-0.723 6.6,-1.045 1.54,-0.322 4.042,-0.845 5.56,-1.163 6.179,-1.294 34.612,-1.649 45.44,-0.568"
         stroke="none"
         fill="#070a0b"
         fill-rule="evenodd" /><path
         id="path1"
         d="m 193.4,20.259 c -0.44,0.092 -1.79,0.415 -3,0.719 -3.233,0.812 -4.852,0.984 -15.114,1.6 -8.057,0.484 -9.502,0.67 -10.709,1.382 -1.36,0.803 -3.246,1.21 -9.377,2.025 -1.667,0.222 -3.836,0.827 -4.881,1.363 -1.086,0.557 -3.323,1.169 -5.296,1.449 -2.686,0.381 -3.716,0.723 -4.82,1.601 -0.876,0.696 -2.458,1.353 -4.205,1.748 -1.541,0.348 -3.318,1.015 -3.95,1.482 -0.632,0.467 -2.362,1.103 -3.845,1.414 -1.655,0.347 -3.153,0.95 -3.88,1.562 -0.652,0.548 -1.666,1.102 -2.254,1.232 -2.51,0.554 -3.814,1.115 -5.003,2.155 -0.696,0.609 -1.825,1.229 -2.509,1.377 -0.683,0.149 -1.908,0.88 -2.72,1.624 -0.813,0.744 -2.026,1.474 -2.695,1.621 -0.669,0.147 -1.605,0.719 -2.079,1.27 -0.475,0.552 -1.763,1.405 -2.863,1.896 -1.1,0.49 -2.239,1.182 -2.532,1.536 -0.293,0.354 -1.193,0.862 -2,1.129 -1.439,0.474 -3.583,2.084 -7.238,5.433 -3.095,2.836 -5.28,4.523 -5.858,4.523 -0.303,0 -0.818,0.515 -1.143,1.144 -0.325,0.629 -1.141,1.371 -1.812,1.649 -0.671,0.278 -1.446,0.977 -1.722,1.553 -0.276,0.576 -1.006,1.288 -1.622,1.584 -0.616,0.295 -1.307,0.946 -1.536,1.448 -0.228,0.501 -1.031,1.205 -1.783,1.563 -0.753,0.359 -1.56,1.075 -1.795,1.59 -0.235,0.515 -0.941,1.24 -1.569,1.611 -0.628,0.371 -1.246,1.003 -1.373,1.406 -0.128,0.402 -0.684,0.936 -1.236,1.188 -0.552,0.252 -1.372,1.081 -1.822,1.843 -0.449,0.762 -1.145,1.489 -1.545,1.617 -0.4,0.127 -0.953,0.773 -1.227,1.436 -0.275,0.663 -0.993,1.461 -1.595,1.772 -0.603,0.312 -1.471,1.203 -1.93,1.981 -0.459,0.778 -1.089,1.415 -1.4,1.415 -0.311,0 -0.791,0.546 -1.068,1.214 -0.276,0.667 -0.903,1.529 -1.394,1.914 -0.49,0.386 -1.188,1.275 -1.55,1.975 -0.362,0.7 -1.015,1.464 -1.45,1.697 -0.435,0.233 -1.045,0.913 -1.356,1.512 -0.31,0.598 -1.275,1.898 -2.144,2.888 -0.869,0.99 -1.796,2.461 -2.06,3.268 -0.265,0.807 -0.771,1.707 -1.125,2 -0.354,0.293 -1.046,1.432 -1.536,2.532 -0.491,1.1 -1.344,2.388 -1.896,2.863 -0.551,0.474 -1.123,1.41 -1.27,2.079 -0.147,0.669 -0.877,1.882 -1.621,2.695 -0.744,0.812 -1.475,2.037 -1.624,2.72 -0.148,0.684 -0.768,1.813 -1.377,2.509 -1.04,1.189 -1.601,2.493 -2.155,5.003 -0.13,0.588 -0.684,1.602 -1.232,2.254 -0.612,0.727 -1.215,2.225 -1.562,3.88 -0.311,1.483 -0.947,3.213 -1.414,3.845 -0.467,0.632 -1.134,2.409 -1.482,3.95 -0.396,1.752 -1.052,3.329 -1.753,4.211 -0.757,0.952 -1.204,2.088 -1.379,3.5 -0.499,4.034 -1.068,6.252 -1.865,7.265 -0.602,0.766 -0.944,2.218 -1.361,5.794 -0.662,5.668 -0.873,6.591 -1.901,8.333 -0.66,1.12 -0.867,2.759 -1.332,10.547 -0.57,9.538 -1.041,13.533 -1.821,15.442 -0.612,1.497 -0.917,13.009 -0.411,15.51 0.222,1.1 0.69,3.408 1.039,5.128 0.35,1.721 0.885,7.43 1.19,12.688 0.463,7.985 0.684,9.81 1.338,11.072 1.011,1.954 1.182,2.696 1.917,8.3 0.437,3.335 0.842,4.981 1.416,5.758 0.509,0.688 1.09,2.699 1.579,5.467 0.426,2.409 0.964,4.442 1.195,4.519 0.648,0.216 1.448,2.012 2.167,4.868 0.361,1.43 1.022,3.103 1.47,3.717 0.448,0.614 1.062,2.3 1.365,3.747 0.314,1.499 0.912,3.015 1.39,3.524 0.462,0.492 1.289,2.357 1.838,4.146 0.629,2.046 1.278,3.401 1.753,3.655 0.414,0.222 1.057,1.318 1.428,2.436 0.371,1.118 0.951,2.138 1.287,2.267 0.337,0.129 1.13,1.376 1.763,2.771 0.632,1.396 1.325,2.537 1.539,2.537 0.214,0 0.862,0.945 1.44,2.1 0.578,1.155 1.367,2.46 1.754,2.9 0.386,0.44 1.027,1.673 1.425,2.739 0.397,1.067 0.968,2.033 1.267,2.148 0.3,0.115 1.104,1.043 1.787,2.061 0.684,1.019 1.893,2.493 2.687,3.276 2.41,2.377 4.043,4.373 4.043,4.942 0,0.296 0.63,1.02 1.4,1.607 0.77,0.587 1.4,1.335 1.4,1.661 0,0.326 0.611,0.953 1.357,1.394 0.747,0.44 1.576,1.328 1.843,1.973 0.268,0.645 0.831,1.282 1.254,1.416 0.422,0.134 1.076,0.725 1.453,1.313 0.378,0.589 1.858,2.273 3.29,3.743 1.432,1.47 2.818,2.91 3.081,3.2 0.262,0.29 1.4,1.337 2.529,2.327 1.129,0.99 2.922,2.655 3.986,3.7 1.064,1.045 2.119,1.9 2.344,1.9 0.225,0 0.524,0.363 0.665,0.807 0.141,0.443 0.972,1.172 1.847,1.618 0.874,0.446 1.693,1.08 1.819,1.408 0.126,0.328 0.785,0.884 1.466,1.236 0.68,0.352 1.555,1.044 1.944,1.539 0.389,0.494 1.565,1.452 2.614,2.128 1.05,0.675 2.13,1.589 2.4,2.029 0.271,0.44 1.261,1.004 2.2,1.252 0.94,0.249 2.158,0.858 2.708,1.354 0.55,0.496 1.847,1.287 2.883,1.759 1.035,0.472 2.06,1.189 2.276,1.594 0.217,0.404 1.115,0.951 1.996,1.215 0.882,0.264 2.111,0.988 2.732,1.609 0.621,0.621 1.845,1.359 2.721,1.641 0.875,0.281 1.952,0.927 2.392,1.435 0.484,0.559 1.943,1.256 3.697,1.766 1.593,0.463 3.355,1.267 3.915,1.786 0.656,0.608 1.891,1.098 3.471,1.376 1.35,0.238 3.098,0.857 3.885,1.375 0.788,0.519 2.75,1.265 4.361,1.659 1.737,0.424 3.421,1.128 4.137,1.731 0.959,0.807 1.999,1.126 5.029,1.546 2.634,0.364 4.351,0.84 5.53,1.531 1.386,0.812 2.71,1.106 6.966,1.546 4.262,0.441 5.484,0.713 6.462,1.436 1.336,0.988 3.539,1.27 15.747,2.016 3.74,0.228 7.88,0.698 9.2,1.043 5.601,1.465 16.095,1.672 19.731,0.389 2.243,-0.791 7.39,-1.368 16.251,-1.82 7.615,-0.389 8.083,-0.461 10.2,-1.557 1.842,-0.954 3.017,-1.219 6.924,-1.559 3.756,-0.328 5.105,-0.619 6.68,-1.443 1.1,-0.575 3.265,-1.218 4.894,-1.453 4.272,-0.616 4.549,-0.7 5.797,-1.75 0.628,-0.528 2.393,-1.265 3.931,-1.641 1.536,-0.375 3.422,-1.1 4.192,-1.612 0.77,-0.512 2.48,-1.125 3.8,-1.362 1.32,-0.236 2.85,-0.792 3.4,-1.234 1.235,-0.993 2.006,-1.347 4.79,-2.198 1.204,-0.369 2.786,-1.193 3.514,-1.833 0.728,-0.639 1.671,-1.162 2.096,-1.162 0.425,0 1.381,-0.535 2.126,-1.188 0.744,-0.654 2.148,-1.529 3.119,-1.946 0.972,-0.416 2.023,-1.066 2.337,-1.444 0.313,-0.378 1.582,-1.198 2.818,-1.822 1.236,-0.624 2.483,-1.418 2.771,-1.764 0.287,-0.347 1.231,-0.821 2.097,-1.054 0.865,-0.233 1.969,-0.882 2.453,-1.441 0.483,-0.56 1.644,-1.467 2.579,-2.017 0.935,-0.55 2.064,-1.512 2.51,-2.138 0.446,-0.626 1.196,-1.261 1.667,-1.41 0.47,-0.15 1.275,-0.771 1.788,-1.38 0.513,-0.61 1.352,-1.214 1.865,-1.343 0.513,-0.128 1.136,-0.679 1.384,-1.224 0.248,-0.545 1.007,-1.278 1.686,-1.629 0.679,-0.351 1.397,-1.067 1.596,-1.591 0.2,-0.523 0.995,-1.252 1.769,-1.619 0.773,-0.367 1.515,-1.012 1.649,-1.433 0.133,-0.421 0.778,-1.042 1.432,-1.381 0.654,-0.338 1.388,-1.052 1.632,-1.588 0.244,-0.535 0.756,-1.072 1.138,-1.193 0.382,-0.121 1.167,-0.935 1.745,-1.808 0.578,-0.873 1.321,-1.587 1.651,-1.587 0.331,0 0.893,-0.612 1.25,-1.361 0.357,-0.749 1.065,-1.551 1.574,-1.783 0.509,-0.232 1.207,-0.966 1.552,-1.632 0.344,-0.666 1.141,-1.477 1.772,-1.803 0.63,-0.326 1.26,-1.046 1.399,-1.6 0.139,-0.554 0.789,-1.284 1.447,-1.624 0.657,-0.34 1.194,-0.872 1.194,-1.183 0,-0.686 1.718,-2.777 8.197,-9.977 0.773,-0.86 1.587,-2.234 1.807,-3.053 0.221,-0.82 0.685,-1.726 1.032,-2.013 0.346,-0.288 1.14,-1.535 1.764,-2.771 0.624,-1.236 1.444,-2.505 1.822,-2.818 0.378,-0.314 1.028,-1.365 1.444,-2.337 0.417,-0.971 1.292,-2.375 1.946,-3.119 0.653,-0.745 1.188,-1.701 1.188,-2.126 0,-0.425 0.523,-1.368 1.162,-2.096 0.64,-0.728 1.464,-2.31 1.833,-3.514 0.851,-2.784 1.205,-3.555 2.198,-4.79 0.442,-0.55 0.998,-2.08 1.234,-3.4 0.237,-1.32 0.85,-3.03 1.362,-3.8 0.512,-0.77 1.237,-2.656 1.612,-4.192 0.376,-1.538 1.113,-3.303 1.641,-3.931 1.051,-1.249 1.133,-1.522 1.754,-5.825 0.256,-1.771 0.823,-3.624 1.42,-4.643 0.792,-1.351 1.081,-2.625 1.419,-6.253 0.298,-3.2 0.698,-5.151 1.343,-6.556 1.419,-3.088 1.407,-3.013 1.832,-11.345 0.447,-8.741 1.026,-13.889 1.814,-16.124 1.283,-3.636 1.076,-14.13 -0.389,-19.731 -0.345,-1.32 -0.815,-5.46 -1.043,-9.2 -0.746,-12.208 -1.028,-14.411 -2.016,-15.747 -0.723,-0.978 -0.995,-2.2 -1.436,-6.462 -0.44,-4.256 -0.734,-5.58 -1.546,-6.966 -0.691,-1.179 -1.167,-2.896 -1.531,-5.53 -0.42,-3.03 -0.739,-4.07 -1.546,-5.029 -0.603,-0.716 -1.307,-2.4 -1.731,-4.137 -0.394,-1.611 -1.14,-3.573 -1.659,-4.361 -0.518,-0.787 -1.137,-2.535 -1.375,-3.885 -0.278,-1.58 -0.768,-2.815 -1.376,-3.471 -0.519,-0.56 -1.323,-2.322 -1.786,-3.915 -0.51,-1.754 -1.207,-3.213 -1.766,-3.697 -0.508,-0.44 -1.154,-1.517 -1.435,-2.392 -0.282,-0.876 -1.02,-2.1 -1.641,-2.721 -0.621,-0.621 -1.345,-1.85 -1.609,-2.732 -0.264,-0.881 -0.811,-1.779 -1.215,-1.996 -0.405,-0.216 -1.122,-1.241 -1.594,-2.276 -0.472,-1.036 -1.263,-2.333 -1.759,-2.883 -0.496,-0.55 -1.105,-1.768 -1.354,-2.708 -0.248,-0.939 -0.812,-1.929 -1.252,-2.2 -0.44,-0.27 -1.354,-1.35 -2.029,-2.4 -0.676,-1.049 -1.634,-2.225 -2.128,-2.614 -0.495,-0.389 -1.187,-1.264 -1.539,-1.944 -0.352,-0.681 -0.908,-1.34 -1.236,-1.466 -0.328,-0.126 -0.962,-0.945 -1.408,-1.819 -0.446,-0.875 -1.175,-1.706 -1.618,-1.847 -0.444,-0.141 -0.807,-0.44 -0.807,-0.665 0,-0.225 -0.855,-1.28 -1.9,-2.344 -1.045,-1.064 -2.71,-2.857 -3.7,-3.986 -0.99,-1.129 -2.037,-2.267 -2.327,-2.529 -0.29,-0.263 -1.73,-1.649 -3.2,-3.081 -1.47,-1.432 -3.154,-2.912 -3.743,-3.29 -0.588,-0.377 -1.179,-1.031 -1.313,-1.453 -0.134,-0.423 -0.771,-0.986 -1.416,-1.254 -0.645,-0.267 -1.533,-1.096 -1.973,-1.843 -0.441,-0.746 -1.068,-1.357 -1.394,-1.357 -0.326,0 -1.074,-0.63 -1.661,-1.4 -0.587,-0.77 -1.311,-1.4 -1.607,-1.4 -0.569,0 -2.565,-1.633 -4.942,-4.043 -0.783,-0.794 -2.257,-2.003 -3.276,-2.687 -1.018,-0.683 -1.946,-1.487 -2.061,-1.787 -0.115,-0.299 -1.081,-0.87 -2.148,-1.267 -1.066,-0.398 -2.299,-1.039 -2.739,-1.425 -0.44,-0.387 -1.745,-1.176 -2.9,-1.754 -1.155,-0.578 -2.1,-1.226 -2.1,-1.44 0,-0.214 -1.141,-0.907 -2.537,-1.539 -1.395,-0.633 -2.642,-1.426 -2.771,-1.763 -0.129,-0.336 -1.149,-0.916 -2.267,-1.287 -1.118,-0.371 -2.214,-1.014 -2.436,-1.428 -0.254,-0.475 -1.609,-1.124 -3.655,-1.753 -1.789,-0.549 -3.654,-1.376 -4.146,-1.838 -0.509,-0.478 -2.025,-1.076 -3.524,-1.39 -1.447,-0.303 -3.133,-0.917 -3.747,-1.365 -0.614,-0.448 -2.287,-1.109 -3.717,-1.47 -2.856,-0.719 -4.652,-1.519 -4.868,-2.167 -0.077,-0.231 -2.11,-0.769 -4.519,-1.195 -2.768,-0.489 -4.779,-1.07 -5.467,-1.579 -0.777,-0.574 -2.423,-0.979 -5.758,-1.416 -5.604,-0.735 -6.346,-0.906 -8.3,-1.917 -1.262,-0.654 -3.087,-0.875 -11.072,-1.338 -8.485,-0.492 -11.272,-0.84 -17.416,-2.171 -1.592,-0.345 -12.075,-0.439 -13.6,-0.122"
         stroke="none"
         fill="#83e3fb"
         fill-rule="evenodd" /><path
         id="path2"
         d="m 197.3,19.097 c 1.485,0.077 3.915,0.077 5.4,0 1.485,-0.077 0.27,-0.14 -2.7,-0.14 -2.97,0 -4.185,0.063 -2.7,0.14 m -7.4,0.392 c 0.715,0.089 1.885,0.089 2.6,0 0.715,-0.088 0.13,-0.161 -1.3,-0.161 -1.43,0 -2.015,0.073 -1.3,0.161 m 20.3,0.131 c 1.98,0.208 5.4,0.643 7.6,0.966 2.2,0.324 5.44,0.663 7.2,0.754 1.76,0.091 2.66,0.092 2,0.002 -10.491,-1.431 -13.38,-1.765 -16.6,-1.919 l -3.8,-0.182 3.6,0.379 m -26.6,0.278 c -0.55,0.104 -3.43,0.512 -6.4,0.907 -2.97,0.395 -4.734,0.736 -3.92,0.757 1.292,0.033 4.305,-0.323 13.12,-1.551 l 2.2,-0.306 -2,0.002 c -1.1,10e-4 -2.45,0.087 -3,0.191 m -14.095,1.985 c 0.497,0.096 1.217,0.092 1.6,-0.008 0.382,-0.1 -0.025,-0.179 -0.905,-0.174 -0.88,0.004 -1.193,0.086 -0.695,0.182 M 229.3,21.876 c 0.385,0.1 1.015,0.1 1.4,0 0.385,-0.101 0.07,-0.183 -0.7,-0.183 -0.77,0 -1.085,0.082 -0.7,0.183 m 3.2,0.4 c 0.385,0.1 1.015,0.1 1.4,0 0.385,-0.101 0.07,-0.183 -0.7,-0.183 -0.77,0 -1.085,0.082 -0.7,0.183 M 160.4,23.6 c -1.87,0.641 -3.108,1.174 -2.75,1.183 0.357,0.009 1.437,-0.272 2.4,-0.626 0.962,-0.354 2.56,-0.877 3.55,-1.164 0.99,-0.287 1.44,-0.53 1,-0.54 -0.44,-0.011 -2.33,0.506 -4.2,1.147 m 75,-0.93 c 0.44,0.098 2.107,0.617 3.704,1.154 1.596,0.537 3.126,0.962 3.4,0.946 0.273,-0.017 -1.026,-0.557 -2.886,-1.2 -1.86,-0.644 -3.75,-1.149 -4.2,-1.124 -0.801,0.046 -0.802,0.05 -0.018,0.224 m -88.167,3.825 c -1.411,0.473 -2.396,0.917 -2.189,0.986 0.208,0.07 1.633,-0.312 3.167,-0.848 1.534,-0.535 2.519,-0.979 2.189,-0.986 -0.33,-0.007 -1.755,0.375 -3.167,0.848 M 252.4,26.8 c 1.87,0.641 3.76,1.167 4.2,1.168 0.44,0.001 -0.82,-0.53 -2.8,-1.178 -1.98,-0.649 -3.87,-1.175 -4.2,-1.168 -0.33,0.006 0.93,0.537 2.8,1.178 M 140,28.772 c -2.555,1.043 -5.232,2.516 -4,2.201 0.55,-0.141 1.427,-0.526 1.948,-0.855 0.521,-0.33 1.871,-0.928 3,-1.329 1.129,-0.402 1.782,-0.735 1.452,-0.741 -0.33,-0.006 -1.41,0.32 -2.4,0.724 m 119.6,0.191 c 6.16,2.642 12.279,5.052 12.73,5.014 0.456,-0.039 -3.629,-1.813 -5.943,-2.58 -1.203,-0.399 -3.442,-1.327 -4.976,-2.061 -1.534,-0.735 -3.064,-1.332 -3.4,-1.327 -0.336,0.006 0.379,0.435 1.589,0.954 m -128.758,3.471 c -0.527,0.211 -0.858,0.483 -0.735,0.606 0.122,0.122 0.733,-0.054 1.358,-0.393 1.256,-0.681 0.874,-0.812 -0.623,-0.213 m -4.042,1.538 c -2.124,0.675 -7.324,3.17 -6.689,3.209 0.172,0.01 1.342,-0.498 2.6,-1.129 1.259,-0.632 3.324,-1.447 4.589,-1.812 1.265,-0.364 2.3,-0.747 2.3,-0.851 0,-0.27 -0.333,-0.201 -2.8,0.583 M 278,36.198 c 2.09,1.005 4.43,2.17 5.2,2.588 4.297,2.334 5.369,2.878 5.081,2.576 -0.86,-0.9 -11.297,-6.244 -13.187,-6.752 -0.492,-0.132 0.816,0.582 2.906,1.588 m -162,2.626 c -0.55,0.443 -1.99,1.345 -3.2,2.005 -2.792,1.522 -4.305,2.434 -7.844,4.728 -1.564,1.014 -3.445,2.203 -4.18,2.643 -3.159,1.89 -3.028,1.788 -2.292,1.794 0.377,0.003 1.007,-0.332 1.4,-0.745 0.394,-0.413 1.526,-1.159 2.516,-1.658 0.99,-0.498 2.412,-1.375 3.16,-1.949 1.431,-1.096 3.585,-2.401 7.24,-4.384 2.429,-1.318 5.169,-3.263 4.578,-3.249 -0.208,0.005 -0.828,0.371 -1.378,0.815 m 173.596,3.631 c 0.548,0.456 1.84,1.257 2.872,1.779 1.031,0.523 1.991,1.138 2.132,1.366 0.141,0.228 1.189,0.886 2.328,1.461 1.14,0.576 2.581,1.472 3.203,1.993 0.622,0.52 1.323,0.946 1.559,0.946 0.544,0 -1.794,-1.701 -3.89,-2.83 -0.88,-0.474 -2.14,-1.265 -2.8,-1.758 -0.66,-0.493 -1.932,-1.269 -2.827,-1.725 -0.894,-0.456 -1.862,-1.112 -2.149,-1.458 -0.287,-0.346 -0.725,-0.623 -0.973,-0.616 -0.248,0.008 -0.003,0.387 0.545,0.842 m -194.44,9.07 c -0.966,0.839 -2.201,1.829 -2.745,2.2 -0.544,0.371 -0.814,0.673 -0.6,0.67 0.214,-0.003 1.616,-0.993 3.116,-2.2 1.5,-1.207 2.56,-2.195 2.356,-2.195 -0.204,0 -1.161,0.686 -2.127,1.525 M 303.519,50.9 c 2.268,1.649 4.19,3.274 6.446,5.45 1.229,1.185 2.865,2.561 3.635,3.057 0.77,0.496 2.656,2.137 4.19,3.647 1.535,1.51 2.381,2.215 1.879,1.565 -1.023,-1.325 -4.661,-4.633 -7.034,-6.396 -0.861,-0.64 -2.418,-1.987 -3.459,-2.993 C 306.589,52.731 303.208,50 302.7,50 c -0.23,0 0.139,0.405 0.819,0.9 M 88.68,57.216 c -1.495,1.311 -2.869,2.384 -3.052,2.384 -0.183,0 -0.826,0.675 -1.428,1.5 l -1.095,1.5 1.347,-1.32 c 1.84,-1.802 5.63,-4.88 6.01,-4.88 0.17,0 0.503,-0.36 0.738,-0.8 0.588,-1.099 0.552,-1.076 -2.52,1.616 M 81.067,63.9 c -0.806,0.825 -2.14,2.061 -2.966,2.747 -2.983,2.477 -9.144,8.403 -11.101,10.677 -1.1,1.278 -3.305,3.685 -4.9,5.348 -1.595,1.663 -2.895,3.137 -2.888,3.276 0.006,0.139 1.671,-1.542 3.7,-3.735 6.207,-6.71 16.336,-16.613 16.992,-16.613 0.199,0 0.941,-0.72 1.648,-1.6 1.613,-2.008 1.417,-2.048 -0.485,-0.1 m 243.12,4.962 c 3.244,3.018 5.139,4.939 11.78,11.938 1.149,1.21 1.852,1.795 1.564,1.3 -0.288,-0.495 -0.637,-0.9 -0.777,-0.9 -0.139,0 -1.633,-1.613 -3.32,-3.585 -1.686,-1.972 -5.264,-5.499 -7.95,-7.839 -3.767,-3.28 -4.064,-3.489 -1.297,-0.914 M 339.346,84.7 c 0.794,0.825 2.094,2.22 2.889,3.1 l 1.446,1.6 -1.34,-1.739 c -2.405,-3.12 -3.617,-4.461 -4.031,-4.461 -0.224,0 0.243,0.675 1.036,1.5 M 57.636,87.9 C 56.95,88.725 55.755,90.12 54.98,91 52.296,94.048 50,96.954 50,97.303 c 0,0.192 0.895,-0.787 1.989,-2.177 1.093,-1.389 2.668,-3.296 3.5,-4.238 3.018,-3.419 3.875,-4.488 3.601,-4.488 -0.114,0 -0.768,0.675 -1.454,1.5 m 286.41,2.4 c 0.301,0.495 0.677,0.9 0.838,0.9 0.16,0 1.008,0.945 1.884,2.1 1.931,2.546 3.566,4.462 2.781,3.259 -0.302,-0.463 -1.123,-1.6 -1.824,-2.526 -0.702,-0.927 -1.333,-1.808 -1.404,-1.959 -0.071,-0.151 -0.734,-0.814 -1.475,-1.474 -1.085,-0.967 -1.24,-1.025 -0.8,-0.3 M 49.395,98.719 c -0.769,1.399 -2.017,3.428 -3.838,6.237 -2.315,3.573 -3.25,5.126 -4.599,7.644 -0.589,1.1 -1.496,2.557 -2.015,3.238 -0.519,0.681 -0.943,1.39 -0.943,1.577 0,0.551 1.966,-2.235 3.258,-4.615 1.983,-3.655 3.288,-5.809 4.384,-7.24 0.574,-0.748 1.451,-2.17 1.949,-3.16 0.499,-0.99 1.245,-2.122 1.658,-2.516 0.413,-0.393 0.751,-0.978 0.751,-1.3 0,-0.765 -0.126,-0.737 -0.605,0.135 M 350.4,99.012 c 0,0.15 0.405,0.773 0.9,1.385 0.495,0.612 1.4,1.988 2.01,3.058 1.411,2.471 3.09,4.785 3.09,4.259 0,-0.222 -0.558,-1.104 -1.24,-1.959 -0.682,-0.855 -1.606,-2.275 -2.054,-3.155 -0.813,-1.596 -2.706,-4.106 -2.706,-3.588 m 6.744,10.588 c 0.455,0.77 1.309,2.3 1.898,3.4 0.589,1.1 1.496,2.557 2.015,3.238 0.519,0.681 0.943,1.37 0.943,1.531 0,0.512 3.314,7.45 3.48,7.285 0.087,-0.087 -0.571,-1.692 -1.461,-3.566 -0.89,-1.875 -1.619,-3.529 -1.619,-3.676 0,-0.147 -0.516,-1.02 -1.146,-1.94 -0.631,-0.92 -1.614,-2.572 -2.186,-3.672 -0.572,-1.1 -1.424,-2.45 -1.895,-3 l -0.855,-1 0.826,1.4 M 35.821,122.311 c -1.184,2.389 -2.715,6.928 -2.432,7.211 0.09,0.09 0.468,-0.89 0.839,-2.179 0.371,-1.289 1.204,-3.396 1.85,-4.683 0.646,-1.288 1.108,-2.408 1.026,-2.489 -0.082,-0.082 -0.659,0.881 -1.283,2.14 m 330.235,4.889 c 0,0.33 0.155,0.96 0.344,1.4 0.217,0.504 0.344,0.578 0.344,0.2 0,-0.33 -0.155,-0.96 -0.344,-1.4 -0.217,-0.504 -0.344,-0.578 -0.344,-0.2 m 0.936,3.034 c 0.18,0.421 0.851,2.206 1.49,3.966 0.64,1.76 1.414,3.585 1.721,4.056 0.307,0.471 0.937,1.911 1.4,3.2 0.508,1.414 0.756,1.821 0.626,1.026 -0.119,-0.725 -0.829,-2.615 -1.578,-4.2 -0.75,-1.585 -1.756,-4.095 -2.238,-5.578 -0.481,-1.482 -1.072,-2.817 -1.312,-2.965 -0.296,-0.183 -0.331,-0.023 -0.109,0.495 m -334.581,0.737 c -0.594,1.563 -0.477,1.809 0.236,0.494 0.339,-0.625 0.517,-1.235 0.395,-1.356 -0.121,-0.121 -0.405,0.267 -0.631,0.862 m -2.705,6.944 c -0.692,1.477 -1.361,3.225 -1.488,3.885 -0.174,0.908 -0.083,0.811 0.376,-0.4 0.334,-0.88 1.081,-2.551 1.66,-3.713 0.58,-1.162 0.976,-2.19 0.881,-2.285 -0.095,-0.095 -0.738,1.036 -1.429,2.513 m -3.022,9.003 c -1.47,4.851 -1.371,5.465 0.142,0.882 0.654,-1.98 1.141,-3.817 1.081,-4.082 -0.059,-0.265 -0.609,1.175 -1.223,3.2 M 372.455,144.4 c -0.004,0.33 0.511,2.22 1.145,4.2 0.634,1.98 1.154,3.24 1.156,2.8 0.002,-0.44 -0.513,-2.33 -1.145,-4.2 -0.632,-1.87 -1.152,-3.13 -1.156,-2.8 M 24.893,154.8 c 0,0.77 0.082,1.085 0.183,0.7 0.1,-0.385 0.1,-1.015 0,-1.4 -0.101,-0.385 -0.183,-0.07 -0.183,0.7 m 350,0 c 0,0.77 0.082,1.085 0.183,0.7 0.1,-0.385 0.1,-1.015 0,-1.4 -0.101,-0.385 -0.183,-0.07 -0.183,0.7 m 0.347,2.333 c -0.022,0.513 0.404,2.223 0.947,3.8 0.544,1.577 1.156,3.587 1.36,4.467 0.235,1.007 0.388,1.256 0.413,0.671 0.022,-0.512 -0.419,-2.299 -0.981,-3.971 -0.562,-1.673 -1.173,-3.685 -1.36,-4.471 -0.24,-1.012 -0.35,-1.157 -0.379,-0.496 m -351.742,4.001 c -0.606,1.906 -1.095,3.736 -1.086,4.066 0.008,0.33 0.554,-1.015 1.214,-2.989 0.659,-1.974 1.148,-3.803 1.086,-4.066 -0.062,-0.262 -0.608,1.083 -1.214,2.989 m -1.797,9.066 c 0.004,0.88 0.086,1.193 0.182,0.695 0.096,-0.497 0.092,-1.217 -0.008,-1.6 -0.1,-0.382 -0.179,0.025 -0.174,0.905 m 356.947,3.2 c 0.112,1.98 0.551,6.003 0.977,8.94 0.426,2.937 0.804,6.087 0.839,7 0.062,1.597 0.07,1.608 0.231,0.278 0.093,-0.759 -0.213,-4.269 -0.679,-7.8 -0.466,-3.53 -1.01,-7.678 -1.209,-9.218 -0.356,-2.758 -0.358,-2.745 -0.159,0.8 m -358,4.4 c -0.414,3.3 -0.808,7.08 -0.876,8.4 l -0.122,2.4 0.335,-2.2 c 0.992,-6.522 1.648,-12.198 1.539,-13.325 -0.068,-0.701 -0.463,1.425 -0.876,4.725 m -1.32,13.4 c 0,1.43 0.073,2.015 0.161,1.3 0.089,-0.715 0.089,-1.885 0,-2.6 -0.088,-0.715 -0.161,-0.13 -0.161,1.3 m 361.603,3 c 0.002,1.54 0.074,2.121 0.161,1.291 0.087,-0.83 0.085,-2.09 -0.003,-2.8 -0.089,-0.71 -0.16,-0.031 -0.158,1.509 M 18.957,200 c 0,2.97 0.063,4.185 0.14,2.7 0.077,-1.485 0.077,-3.915 0,-5.4 -0.077,-1.485 -0.14,-0.27 -0.14,2.7 m 361.971,6 c 0,1.43 0.073,2.015 0.161,1.3 0.089,-0.715 0.089,-1.885 0,-2.6 -0.088,-0.715 -0.161,-0.13 -0.161,1.3 m -361.505,4.4 c 0.154,3.22 0.488,6.109 1.919,16.6 0.09,0.66 0.089,-0.24 -0.002,-2 -0.091,-1.76 -0.43,-5 -0.754,-7.2 -0.323,-2.2 -0.758,-5.62 -0.966,-7.6 l -0.379,-3.6 0.182,3.8 m 361.029,0.4 c -0.037,0.99 -0.42,4.23 -0.852,7.2 -0.432,2.97 -0.769,6.12 -0.75,7 0.02,0.93 0.257,0.008 0.565,-2.2 1.051,-7.544 1.449,-11.474 1.279,-12.626 -0.129,-0.872 -0.191,-0.711 -0.242,0.626 m -1.943,17.6 c 0,0.99 0.078,1.395 0.173,0.9 0.096,-0.495 0.096,-1.305 0,-1.8 -0.095,-0.495 -0.173,-0.09 -0.173,0.9 M 21.693,230 c 0,0.77 0.082,1.085 0.183,0.7 0.1,-0.385 0.1,-1.015 0,-1.4 -0.101,-0.385 -0.183,-0.07 -0.183,0.7 m 0.4,3.2 c 0,0.77 0.082,1.085 0.183,0.7 0.1,-0.385 0.1,-1.015 0,-1.4 -0.101,-0.385 -0.183,-0.07 -0.183,0.7 m 0.353,2.218 c -0.025,0.45 0.48,2.34 1.124,4.2 0.643,1.86 1.183,3.159 1.2,2.886 0.016,-0.274 -0.409,-1.804 -0.946,-3.4 -0.537,-1.597 -1.056,-3.264 -1.154,-3.704 -0.174,-0.784 -0.178,-0.783 -0.224,0.018 m 353.796,4.149 c -0.637,1.917 -1.056,3.744 -0.931,4.059 0.148,0.376 0.237,0.28 0.257,-0.278 0.018,-0.469 0.49,-2.07 1.05,-3.558 0.56,-1.488 0.965,-2.931 0.9,-3.207 -0.065,-0.275 -0.639,1.068 -1.276,2.984 m -2.979,13.229 c -0.735,2.411 -1.244,4.614 -1.131,4.894 0.128,0.319 0.217,0.25 0.236,-0.184 0.018,-0.382 0.58,-2.344 1.25,-4.36 0.67,-2.016 1.165,-3.906 1.1,-4.2 -0.065,-0.293 -0.719,1.439 -1.455,3.85 M 25.622,249.6 c -0.007,0.33 0.519,2.22 1.168,4.2 0.648,1.98 1.179,3.24 1.178,2.8 -0.002,-0.941 -2.328,-7.882 -2.346,-7 m 2.387,8.411 c -0.005,0.336 0.592,1.866 1.327,3.4 0.734,1.534 1.662,3.773 2.061,4.976 0.767,2.314 2.541,6.399 2.58,5.943 0.025,-0.287 -1.842,-5.212 -3.232,-8.53 -2.171,-5.179 -2.727,-6.355 -2.736,-5.789 m 342.542,3.12 c -1.205,2.582 -2.055,4.879 -1.655,4.469 0.361,-0.371 3.178,-6.86 3.038,-7 -0.076,-0.076 -0.699,1.063 -1.383,2.531 m -3.451,8.654 c -0.605,1.416 -1.096,2.809 -1.091,3.095 0.009,0.485 1.791,-3.426 2.269,-4.98 0.469,-1.523 -0.135,-0.557 -1.178,1.885 m -1.468,4.139 c -0.018,0.288 -0.73,1.998 -1.584,3.8 -0.853,1.802 -1.664,3.726 -1.802,4.276 l -0.25,1 0.481,-1 c 2.502,-5.204 3.547,-7.712 3.382,-8.118 -0.142,-0.349 -0.205,-0.338 -0.227,0.042 m -331.022,1.17 c 0.508,1.89 5.852,12.327 6.752,13.187 0.302,0.288 -0.242,-0.784 -2.576,-5.081 -0.418,-0.77 -1.583,-3.11 -2.588,-5.2 -1.006,-2.09 -1.72,-3.398 -1.588,-2.906 m 326.516,8.806 c -0.779,0.913 -2.779,4.58 -2.597,4.763 0.078,0.077 0.625,-0.715 1.215,-1.761 0.59,-1.046 1.362,-2.307 1.714,-2.802 0.756,-1.064 0.525,-1.204 -0.332,-0.2 m -319.513,5.151 c -0.007,0.248 0.27,0.686 0.616,0.973 0.346,0.287 1.002,1.255 1.458,2.149 0.456,0.895 1.232,2.167 1.725,2.827 0.493,0.66 1.284,1.92 1.758,2.8 1.129,2.096 2.83,4.434 2.83,3.89 0,-0.236 -0.426,-0.937 -0.946,-1.559 -0.521,-0.622 -1.417,-2.063 -1.993,-3.203 -0.575,-1.139 -1.233,-2.187 -1.461,-2.328 -0.228,-0.141 -0.843,-1.101 -1.366,-2.132 -1.066,-2.105 -2.6,-4.105 -2.621,-3.417 M 357.51,289.9 c -0.337,0.385 -0.932,1.33 -1.321,2.1 -0.389,0.77 -1.105,1.94 -1.592,2.6 -0.486,0.66 -1.388,2.145 -2.004,3.3 -0.616,1.155 -1.243,2.1 -1.392,2.1 -0.262,0 -1.201,1.782 -1.201,2.278 0,0.432 1.945,-2.433 3.04,-4.478 0.589,-1.1 1.418,-2.45 1.843,-3 0.818,-1.058 3.535,-5.6 3.35,-5.6 -0.06,0 -0.385,0.315 -0.723,0.7 M 50,302.7 c 0,0.508 2.731,3.889 5.23,6.476 1.006,1.041 2.353,2.598 2.993,3.459 1.763,2.373 5.071,6.011 6.396,7.034 0.65,0.502 -0.055,-0.344 -1.565,-1.879 -1.51,-1.534 -3.151,-3.42 -3.647,-4.19 -0.496,-0.77 -1.872,-2.406 -3.057,-3.635 -2.176,-2.256 -3.801,-4.178 -5.45,-6.446 C 50.405,302.839 50,302.47 50,302.7 m 299.6,0.357 c 0,0.215 -0.81,1.34 -1.8,2.5 -0.99,1.159 -1.8,2.3 -1.8,2.535 0,0.234 0.405,-0.131 0.9,-0.811 0.495,-0.681 1.42,-1.883 2.056,-2.67 0.635,-0.788 1.04,-1.548 0.9,-1.689 -0.141,-0.14 -0.256,-0.08 -0.256,0.135 m -5.123,6.243 c -0.444,0.495 -1.452,1.613 -2.242,2.483 -0.789,0.871 -1.435,1.725 -1.435,1.897 0,0.173 -1.395,1.748 -3.1,3.501 -1.705,1.752 -3.82,4.023 -4.7,5.046 -3.31,3.848 -15.214,15.499 -19.223,18.815 -0.686,0.567 -0.648,0.566 0.327,-0.012 1.82,-1.078 15.754,-14.579 19.235,-18.636 0.846,-0.987 2.878,-3.234 4.515,-4.994 3.326,-3.575 7.921,-9 7.624,-9 -0.107,0 -0.557,0.405 -1.001,0.9 M 69.776,325.484 c 2.34,2.686 5.867,6.264 7.839,7.95 1.972,1.687 3.585,3.181 3.585,3.32 0,0.14 0.405,0.489 0.9,0.777 0.495,0.288 -0.09,-0.415 -1.3,-1.564 -6.999,-6.641 -8.92,-8.536 -11.938,-11.78 -2.575,-2.767 -2.366,-2.47 0.914,1.297 M 83.2,338.31 c 0,0.414 1.341,1.626 4.461,4.031 l 1.739,1.34 -1.6,-1.446 c -0.88,-0.795 -2.275,-2.095 -3.1,-2.889 -0.825,-0.793 -1.5,-1.26 -1.5,-1.036 m 229.2,3.597 c 0,0.242 -0.747,0.947 -1.659,1.567 -0.913,0.619 -1.936,1.576 -2.274,2.126 -0.47,0.766 -0.279,0.672 0.819,-0.4 0.787,-0.77 1.945,-1.789 2.573,-2.264 0.628,-0.475 1.006,-1 0.841,-1.166 -0.165,-0.167 -0.3,-0.105 -0.3,0.137 m -221.8,2.939 c 0.66,0.741 1.323,1.404 1.474,1.475 0.151,0.071 1.032,0.702 1.959,1.404 0.926,0.701 2.063,1.522 2.526,1.824 1.203,0.785 -0.713,-0.85 -3.259,-2.781 -1.155,-0.876 -2.1,-1.724 -2.1,-1.884 0,-0.161 -0.405,-0.537 -0.9,-0.838 -0.725,-0.44 -0.667,-0.285 0.3,0.8 m 215.314,2.682 c -0.723,0.621 -1.759,1.431 -2.303,1.8 -0.544,0.37 -0.811,0.672 -0.593,0.672 0.218,0 1.293,-0.738 2.389,-1.641 2.423,-1.994 2.386,-1.959 2.074,-1.959 -0.139,0 -0.844,0.508 -1.567,1.128 M 301,350.486 c -0.44,0.254 -1.044,0.705 -1.342,1.001 -0.298,0.297 -1.288,0.914 -2.2,1.372 -0.912,0.458 -2.198,1.236 -2.858,1.729 -0.66,0.493 -1.932,1.269 -2.827,1.725 -0.894,0.456 -1.862,1.112 -2.149,1.458 -0.557,0.672 3.499,-1.591 5.176,-2.888 0.55,-0.425 1.9,-1.254 3,-1.843 2.258,-1.209 4.903,-3.046 4.359,-3.028 -0.197,0.007 -0.719,0.22 -1.159,0.474 m -201.131,0.859 c 0.622,0.52 1.851,1.312 2.731,1.761 0.88,0.448 2.3,1.372 3.155,2.054 0.855,0.682 1.737,1.24 1.959,1.24 0.526,0 -1.788,-1.679 -4.259,-3.09 -1.07,-0.61 -2.446,-1.515 -3.058,-2.01 -0.612,-0.495 -1.235,-0.9 -1.385,-0.9 -0.151,0 0.235,0.425 0.857,0.945 m 9.331,5.828 c 0.55,0.471 1.9,1.323 3,1.895 1.1,0.572 2.752,1.555 3.672,2.186 0.92,0.63 1.793,1.146 1.94,1.146 0.147,0 1.801,0.729 3.676,1.619 1.874,0.89 3.479,1.548 3.566,1.461 0.165,-0.166 -6.773,-3.48 -7.285,-3.48 -0.161,0 -0.85,-0.424 -1.531,-0.943 -0.681,-0.519 -2.138,-1.426 -3.238,-2.015 -1.1,-0.589 -2.63,-1.443 -3.4,-1.898 l -1.4,-0.826 1,0.855 m 177.078,2.407 c -1.058,0.601 -2.228,1.417 -2.6,1.813 -0.743,0.788 -0.295,0.608 1.522,-0.614 0.55,-0.37 1.63,-1.053 2.4,-1.519 2.04,-1.233 0.94,-0.967 -1.322,0.32 m -4.678,2.704 c -0.33,0.121 -2.04,0.893 -3.8,1.716 -1.76,0.823 -3.47,1.595 -3.8,1.716 -0.438,0.161 -0.454,0.229 -0.06,0.252 0.297,0.018 2.007,-0.653 3.8,-1.489 1.793,-0.837 3.71,-1.725 4.26,-1.973 1.012,-0.457 0.704,-0.628 -0.4,-0.222 M 127.4,366.4 c 0.44,0.189 1.07,0.344 1.4,0.344 0.378,0 0.304,-0.127 -0.2,-0.344 -0.44,-0.189 -1.07,-0.344 -1.4,-0.344 -0.378,0 -0.304,0.127 0.2,0.344 m 142.2,0.838 c -3.04,1.421 -2.086,1.287 1.4,-0.197 1.32,-0.562 2.13,-1.021 1.8,-1.02 -0.33,10e-4 -1.77,0.548 -3.2,1.217 m -139.861,-0.137 c 0.148,0.24 1.483,0.831 2.965,1.312 1.483,0.482 3.993,1.488 5.578,2.238 1.585,0.749 3.475,1.459 4.2,1.578 0.795,0.13 0.388,-0.118 -1.026,-0.626 -1.289,-0.463 -2.729,-1.093 -3.2,-1.4 -0.471,-0.307 -2.296,-1.081 -4.056,-1.721 -1.76,-0.639 -3.545,-1.31 -3.966,-1.49 -0.518,-0.222 -0.678,-0.187 -0.495,0.109 m 134.661,1.985 c -1.41,0.523 -6.117,2.929 -5.286,2.701 1.166,-0.319 6.819,-2.964 6.286,-2.941 -0.22,0.009 -0.67,0.117 -1,0.24 m -10.2,3.688 c -1.32,0.394 -2.85,0.925 -3.4,1.18 l -1,0.464 1,-0.216 c 2.176,-0.471 7.352,-2.159 6.6,-2.152 -0.44,0.004 -1.88,0.329 -3.2,0.724 m -107,0.837 c 1.87,0.632 3.76,1.147 4.2,1.145 0.44,-0.002 -0.82,-0.522 -2.8,-1.156 -1.98,-0.634 -3.87,-1.149 -4.2,-1.145 -0.33,0.004 0.93,0.524 2.8,1.156 m 6.9,1.465 c 0.385,0.1 1.015,0.1 1.4,0 0.385,-0.101 0.07,-0.183 -0.7,-0.183 -0.77,0 -1.085,0.082 -0.7,0.183 m 3.529,0.543 c 0.786,0.187 2.798,0.798 4.471,1.36 1.672,0.562 3.459,1.003 3.971,0.981 0.585,-0.025 0.336,-0.178 -0.671,-0.413 -0.88,-0.204 -2.89,-0.816 -4.467,-1.36 -1.577,-0.543 -3.287,-0.969 -3.8,-0.947 -0.661,0.029 -0.516,0.139 0.496,0.379 m 81.079,0.669 c -1.701,0.583 -3.01,1.144 -2.908,1.245 0.101,0.101 1.583,-0.28 3.292,-0.848 1.709,-0.568 3.468,-1.113 3.908,-1.212 0.639,-0.144 0.599,-0.187 -0.2,-0.213 -0.55,-0.018 -2.392,0.445 -4.092,1.028 m -7.808,1.988 c 0.385,0.1 1.015,0.1 1.4,0 0.385,-0.101 0.07,-0.183 -0.7,-0.183 -0.77,0 -1.085,0.082 -0.7,0.183 m -58.3,0.531 c 1.54,0.199 5.688,0.743 9.218,1.209 3.531,0.466 7.041,0.772 7.8,0.679 1.33,-0.161 1.319,-0.169 -0.278,-0.231 -0.913,-0.035 -4.063,-0.413 -7,-0.839 -2.937,-0.426 -6.96,-0.865 -8.94,-0.977 -3.545,-0.199 -3.558,-0.197 -0.8,0.159 m 54.9,-0.125 c 0.495,0.096 1.305,0.096 1.8,0 0.495,-0.095 0.09,-0.173 -0.9,-0.173 -0.99,0 -1.395,0.078 -0.9,0.173 m -9.7,0.934 c -2.64,0.402 -5.7,0.769 -6.8,0.817 -1.377,0.06 -1.634,0.141 -0.826,0.261 1.152,0.17 5.082,-0.228 12.626,-1.279 2.834,-0.395 3.291,-0.53 1.8,-0.529 -1.1,0 -4.16,0.329 -6.8,0.73 m -25.109,1.473 c 0.71,0.088 1.97,0.09 2.8,0.003 0.83,-0.087 0.249,-0.159 -1.291,-0.161 -1.54,-0.002 -2.219,0.069 -1.509,0.158 m 12.009,0 c 0.715,0.089 1.885,0.089 2.6,0 0.715,-0.088 0.13,-0.161 -1.3,-0.161 -1.43,0 -2.015,0.073 -1.3,0.161"
         stroke="none"
         fill="#447c8c"
         fill-rule="evenodd" /><path
         id="path3"
         d="m 184.36,18.427 c -3.432,0.202 -7.482,0.628 -9,0.946 -1.518,0.318 -4.02,0.841 -5.56,1.163 -1.54,0.322 -4.51,0.792 -6.6,1.045 -2.656,0.322 -4.29,0.747 -5.428,1.414 -1.263,0.741 -2.828,1.093 -7,1.578 -3.985,0.464 -5.644,0.826 -6.427,1.405 -0.581,0.429 -2.362,1.095 -3.958,1.48 -1.597,0.386 -3.642,1.202 -4.545,1.814 -0.903,0.612 -2.69,1.322 -3.971,1.578 -1.282,0.256 -2.955,0.89 -3.718,1.408 -0.764,0.518 -1.606,0.943 -1.871,0.945 -1.166,0.007 -5.663,1.624 -6.434,2.313 -0.466,0.417 -1.876,1.164 -3.132,1.661 -1.257,0.497 -2.517,1.184 -2.8,1.528 -0.284,0.343 -1.416,1.024 -2.516,1.513 -1.1,0.489 -2.334,1.259 -2.741,1.713 -0.408,0.453 -1.23,0.931 -1.827,1.062 -0.596,0.131 -1.947,0.951 -3.002,1.823 -1.054,0.871 -2.154,1.584 -2.443,1.584 -0.289,0 -1.103,0.485 -1.808,1.079 -0.705,0.593 -2.114,1.465 -3.13,1.937 -1.651,0.766 -2.988,1.808 -5.629,4.384 -3.672,3.582 -4.646,4.416 -5.726,4.896 -0.608,0.271 -1.297,0.9 -1.531,1.398 -0.234,0.498 -0.997,1.268 -1.694,1.71 -0.698,0.442 -1.447,1.207 -1.664,1.7 -0.217,0.493 -0.636,0.896 -0.931,0.896 -0.295,0 -1.25,0.72 -2.121,1.6 -0.871,0.88 -1.712,1.601 -1.868,1.602 C 74.399,67.61 61.2,81.471 61.2,82.394 c 0,0.234 -0.458,0.6 -1.018,0.813 -0.56,0.213 -1.235,0.902 -1.5,1.532 -0.265,0.63 -1.067,1.637 -1.782,2.239 -0.715,0.601 -1.3,1.285 -1.3,1.519 0,0.234 -0.675,1.12 -1.5,1.968 -3.309,3.403 -3.944,4.207 -4.688,5.935 -0.427,0.99 -1.279,2.391 -1.894,3.114 -0.615,0.723 -1.118,1.558 -1.118,1.856 0,0.299 -0.713,1.406 -1.584,2.46 -0.872,1.055 -1.692,2.406 -1.823,3.002 -0.131,0.597 -0.609,1.419 -1.062,1.827 -0.454,0.407 -1.224,1.641 -1.713,2.741 -0.489,1.1 -1.17,2.232 -1.513,2.516 -0.344,0.283 -1.031,1.543 -1.528,2.8 -0.497,1.256 -1.244,2.666 -1.661,3.132 -0.689,0.771 -2.306,5.268 -2.313,6.434 -0.002,0.265 -0.427,1.107 -0.945,1.871 -0.518,0.763 -1.152,2.436 -1.408,3.718 -0.256,1.281 -0.966,3.068 -1.578,3.971 -0.612,0.903 -1.431,2.96 -1.82,4.572 -0.389,1.612 -1.046,3.361 -1.459,3.886 -0.414,0.526 -0.844,1.709 -0.955,2.628 -0.112,0.92 -0.399,3.364 -0.638,5.433 -0.281,2.43 -0.787,4.507 -1.431,5.867 -0.616,1.304 -1.156,3.452 -1.417,5.639 -0.231,1.943 -0.685,4.703 -1.009,6.133 -1.502,6.63 -1.726,8.361 -2.173,16.8 -0.816,15.4 -0.028,35.031 1.648,41.044 0.436,1.564 1.045,5.005 1.353,7.646 0.419,3.584 0.825,5.323 1.6,6.853 0.796,1.571 1.168,3.217 1.589,7.045 0.398,3.607 0.784,5.39 1.389,6.416 0.461,0.781 1.188,2.784 1.615,4.451 0.427,1.666 1.128,3.415 1.558,3.887 0.77,0.844 1.172,1.894 2.09,5.458 0.255,0.99 0.778,2.16 1.161,2.6 0.383,0.44 0.937,1.88 1.229,3.2 0.545,2.456 1.691,5.163 2.362,5.578 0.206,0.127 0.668,1.115 1.027,2.196 0.359,1.08 0.928,2.193 1.264,2.471 0.335,0.279 1.142,1.56 1.791,2.847 0.65,1.286 1.535,2.642 1.968,3.012 0.432,0.371 0.787,0.949 0.787,1.285 0.002,0.75 1.282,2.894 2.389,4.001 0.452,0.452 1.11,1.543 1.463,2.426 0.353,0.883 0.94,1.826 1.304,2.095 0.363,0.269 1.006,1.299 1.428,2.289 0.421,0.99 1.227,2.288 1.791,2.885 0.563,0.597 1.834,2.004 2.824,3.127 0.99,1.124 2.345,2.615 3.012,3.315 0.667,0.7 1.465,1.773 1.774,2.384 0.308,0.611 0.95,1.208 1.427,1.328 0.476,0.119 1.162,0.839 1.524,1.598 0.362,0.76 1.11,1.553 1.661,1.762 0.551,0.21 1.002,0.552 1.002,0.762 0,0.997 7.778,9.549 11.959,13.15 1.859,1.6 3.612,3.241 3.895,3.644 0.283,0.404 1.021,0.945 1.64,1.201 0.619,0.257 1.301,0.866 1.516,1.355 0.214,0.489 0.957,1.139 1.651,1.444 0.694,0.306 1.459,0.99 1.701,1.521 0.242,0.531 1.056,1.223 1.81,1.538 0.753,0.315 1.475,0.903 1.603,1.308 0.129,0.405 0.933,1.129 1.787,1.609 0.855,0.48 1.661,1.151 1.791,1.491 0.13,0.34 1.274,1.088 2.542,1.663 1.268,0.574 2.456,1.299 2.642,1.61 0.185,0.31 1.143,0.911 2.129,1.333 0.985,0.423 2.328,1.305 2.984,1.96 0.656,0.656 1.874,1.376 2.707,1.601 0.834,0.224 1.848,0.775 2.255,1.224 0.406,0.449 1.559,1.179 2.563,1.623 1.004,0.444 2.275,1.222 2.825,1.73 0.55,0.507 1.945,1.253 3.1,1.657 1.155,0.404 2.1,0.875 2.1,1.046 0,0.532 2.095,1.416 4.6,1.941 1.32,0.277 3.03,0.912 3.8,1.412 0.77,0.5 2.57,1.202 4,1.56 1.43,0.358 3.23,1.086 4,1.618 0.77,0.532 2.57,1.261 4,1.62 1.43,0.358 3.169,0.98 3.864,1.381 1.18,0.681 2.41,0.925 10.114,2.011 1.638,0.231 3.528,0.757 4.2,1.169 1.254,0.768 3.346,1.214 9.6,2.048 1.968,0.262 4.159,0.72 4.87,1.017 5.925,2.475 49.23,2.447 55.189,-0.037 1.283,-0.535 5.018,-1.192 9.163,-1.613 1.32,-0.134 3.31,-0.679 4.423,-1.211 1.37,-0.656 3.883,-1.237 7.792,-1.801 3.533,-0.51 6.238,-1.112 6.977,-1.554 0.665,-0.397 2.468,-1.026 4.008,-1.399 1.54,-0.373 3.474,-1.141 4.298,-1.708 0.824,-0.566 2.624,-1.289 4,-1.606 1.376,-0.318 3.075,-1.014 3.775,-1.547 0.701,-0.534 1.601,-0.972 2,-0.974 1.35,-0.008 4.698,-1.206 6.117,-2.188 0.775,-0.536 2.215,-1.259 3.199,-1.605 0.983,-0.347 2.153,-0.964 2.6,-1.372 0.446,-0.409 1.746,-1.211 2.889,-1.782 1.142,-0.572 2.222,-1.286 2.4,-1.588 0.177,-0.301 0.992,-0.766 1.812,-1.032 0.819,-0.267 2.346,-1.192 3.393,-2.057 1.046,-0.864 2.193,-1.572 2.548,-1.572 0.355,0 0.988,-0.385 1.407,-0.856 0.419,-0.471 1.752,-1.333 2.962,-1.915 1.21,-0.582 2.83,-1.64 3.6,-2.35 0.77,-0.711 2.084,-1.875 2.92,-2.586 0.836,-0.711 2.186,-1.947 3,-2.747 0.814,-0.799 1.839,-1.521 2.277,-1.605 0.438,-0.083 1.033,-0.644 1.322,-1.246 0.288,-0.602 0.702,-1.095 0.918,-1.095 0.974,0 13.202,-11.691 14.717,-14.071 0.375,-0.589 1.214,-1.622 1.864,-2.296 0.65,-0.674 1.836,-1.902 2.636,-2.729 0.799,-0.827 1.661,-1.909 1.914,-2.404 0.253,-0.495 0.696,-0.9 0.984,-0.9 0.636,0 1.848,-1.277 1.848,-1.948 0,-0.266 0.675,-1.183 1.5,-2.036 0.825,-0.854 1.815,-1.882 2.2,-2.284 0.385,-0.403 0.963,-1.002 1.285,-1.332 2.395,-2.459 3.32,-3.678 4.244,-5.6 0.582,-1.21 1.444,-2.543 1.915,-2.962 0.471,-0.419 0.856,-1.052 0.856,-1.407 0,-0.355 0.708,-1.502 1.572,-2.548 0.865,-1.047 1.79,-2.574 2.057,-3.393 0.266,-0.82 0.731,-1.635 1.032,-1.812 0.302,-0.178 1.016,-1.258 1.588,-2.4 0.571,-1.143 1.373,-2.443 1.782,-2.889 0.408,-0.447 1.025,-1.617 1.372,-2.6 0.346,-0.984 1.069,-2.424 1.605,-3.199 0.982,-1.419 2.18,-4.767 2.188,-6.117 0.002,-0.399 0.44,-1.299 0.974,-2 0.533,-0.7 1.229,-2.399 1.547,-3.775 0.317,-1.376 1.04,-3.176 1.606,-4 0.567,-0.824 1.335,-2.758 1.708,-4.298 0.373,-1.54 0.994,-3.34 1.38,-4 0.837,-1.429 1.009,-2.219 1.77,-8.113 0.407,-3.146 0.824,-4.851 1.378,-5.63 0.791,-1.11 1.206,-3.103 2.025,-9.724 0.236,-1.907 0.679,-4.067 0.985,-4.8 2.52,-6.044 2.58,-49.295 0.077,-55.285 -0.297,-0.711 -0.755,-2.902 -1.017,-4.87 -0.834,-6.254 -1.28,-8.346 -2.048,-9.6 -0.412,-0.672 -0.938,-2.562 -1.169,-4.2 -1.086,-7.704 -1.33,-8.934 -2.011,-10.114 -0.401,-0.695 -1.023,-2.434 -1.381,-3.864 -0.359,-1.43 -1.088,-3.23 -1.62,-4 -0.532,-0.77 -1.26,-2.57 -1.618,-4 -0.358,-1.43 -1.06,-3.23 -1.56,-4 -0.5,-0.77 -1.135,-2.48 -1.412,-3.8 -0.525,-2.505 -1.409,-4.6 -1.941,-4.6 -0.171,0 -0.642,-0.945 -1.046,-2.1 -0.404,-1.155 -1.15,-2.55 -1.657,-3.1 -0.508,-0.55 -1.286,-1.821 -1.73,-2.825 -0.444,-1.004 -1.174,-2.157 -1.623,-2.563 -0.449,-0.407 -1,-1.421 -1.224,-2.255 -0.225,-0.833 -0.945,-2.051 -1.601,-2.707 -0.655,-0.656 -1.537,-1.999 -1.96,-2.984 -0.422,-0.986 -1.023,-1.944 -1.333,-2.129 -0.311,-0.186 -1.036,-1.374 -1.61,-2.642 -0.575,-1.268 -1.323,-2.412 -1.663,-2.542 -0.34,-0.13 -1.011,-0.936 -1.491,-1.791 -0.48,-0.854 -1.204,-1.658 -1.609,-1.787 -0.405,-0.128 -0.993,-0.85 -1.308,-1.603 -0.315,-0.754 -1.007,-1.568 -1.538,-1.81 -0.531,-0.242 -1.215,-1.007 -1.521,-1.701 -0.305,-0.694 -0.955,-1.437 -1.444,-1.651 -0.489,-0.215 -1.098,-0.897 -1.355,-1.516 -0.256,-0.619 -0.797,-1.357 -1.201,-1.64 -0.403,-0.283 -2.044,-2.036 -3.644,-3.895 C 330.31,72.178 321.758,64.4 320.761,64.4 c -0.21,0 -0.552,-0.451 -0.762,-1.002 -0.209,-0.551 -1.002,-1.299 -1.762,-1.661 -0.759,-0.362 -1.479,-1.048 -1.598,-1.524 -0.12,-0.477 -0.717,-1.119 -1.328,-1.427 -0.611,-0.309 -1.684,-1.107 -2.384,-1.774 -0.7,-0.667 -2.191,-2.022 -3.315,-3.012 -1.123,-0.99 -2.53,-2.261 -3.127,-2.824 -0.597,-0.564 -1.895,-1.37 -2.885,-1.791 -0.99,-0.422 -2.02,-1.065 -2.289,-1.428 -0.269,-0.364 -1.212,-0.951 -2.095,-1.304 -0.883,-0.353 -1.974,-1.011 -2.426,-1.463 -1.107,-1.107 -3.251,-2.387 -4.001,-2.389 -0.336,0 -0.914,-0.355 -1.285,-0.787 -0.37,-0.433 -1.726,-1.318 -3.012,-1.968 -1.287,-0.649 -2.568,-1.456 -2.847,-1.791 -0.278,-0.336 -1.391,-0.905 -2.471,-1.264 -1.081,-0.359 -2.069,-0.821 -2.196,-1.027 -0.415,-0.671 -3.122,-1.817 -5.578,-2.362 -1.32,-0.292 -2.76,-0.846 -3.2,-1.229 -0.44,-0.383 -1.61,-0.906 -2.6,-1.161 -3.564,-0.918 -4.614,-1.32 -5.458,-2.09 -0.472,-0.43 -2.221,-1.131 -3.887,-1.558 -1.667,-0.427 -3.67,-1.154 -4.451,-1.615 -1.026,-0.605 -2.809,-0.991 -6.416,-1.389 -3.828,-0.421 -5.474,-0.793 -7.045,-1.589 -1.53,-0.775 -3.269,-1.181 -6.853,-1.6 -2.641,-0.308 -6.082,-0.918 -7.646,-1.354 -5.677,-1.583 -29.103,-2.44 -43.484,-1.59 m 24.24,0.781 c 3.08,0.22 8.21,0.746 11.4,1.168 3.19,0.422 8.14,1.057 11,1.411 2.92,0.361 6.779,1.147 8.8,1.793 1.98,0.632 4.68,1.25 6,1.374 1.32,0.124 3.3,0.476 4.4,0.782 6.446,1.791 9.819,2.886 11.523,3.738 1.869,0.936 5.108,2.188 11.677,4.515 3.526,1.249 10.058,4.227 11,5.015 0.33,0.276 1.68,1.077 3,1.782 1.32,0.704 2.975,1.67 3.678,2.147 0.703,0.477 2.462,1.587 3.91,2.467 1.448,0.88 3.213,2.004 3.922,2.499 0.71,0.494 2.1,1.287 3.09,1.761 1.92,0.92 4.069,2.593 7.202,5.606 1.067,1.026 2.898,2.576 4.069,3.444 1.171,0.868 3.299,2.729 4.729,4.137 1.43,1.407 4.76,4.466 7.4,6.797 2.64,2.331 5.867,5.479 7.171,6.997 2.74,3.189 4.829,5.45 6.179,6.688 0.522,0.479 1.645,1.805 2.495,2.948 0.85,1.142 2.351,2.942 3.337,4 2.348,2.522 4.141,4.912 5.618,7.49 1.511,2.637 2.482,4.223 4,6.532 1.539,2.341 2.606,4.084 6.022,9.841 1.975,3.329 2.068,3.505 3.7,7.06 0.858,1.87 1.868,4.39 2.243,5.6 0.375,1.21 0.918,2.65 1.206,3.2 0.289,0.55 0.838,1.99 1.221,3.2 0.383,1.21 1.289,3.46 2.013,5 0.725,1.54 1.629,4.05 2.009,5.578 0.38,1.527 0.938,3.367 1.239,4.087 0.301,0.721 0.83,3.335 1.175,5.809 0.345,2.475 1.065,5.753 1.601,7.285 0.958,2.742 1.855,7.537 2.364,12.641 0.143,1.43 0.648,5.3 1.122,8.6 1.163,8.098 1.243,26.871 0.147,34.6 -0.391,2.75 -0.965,7.16 -1.276,9.8 -0.951,8.052 -1.43,10.694 -2.414,13.31 -0.519,1.38 -1.22,4.491 -1.558,6.912 -0.337,2.422 -0.869,5.015 -1.182,5.764 -0.313,0.748 -0.946,2.736 -1.407,4.416 -0.461,1.681 -1.225,3.808 -1.696,4.727 -0.849,1.653 -1.999,4.63 -4.533,11.734 -0.719,2.014 -1.591,4.174 -1.938,4.8 -0.347,0.625 -1.174,2.307 -1.837,3.737 -1.237,2.67 -6.149,11.016 -7.533,12.8 -0.426,0.55 -1.181,1.81 -1.677,2.8 -0.496,0.99 -1.232,2.162 -1.637,2.605 -0.405,0.443 -1.01,1.463 -1.346,2.265 -0.618,1.48 -1.934,3.144 -6.361,8.047 -1.35,1.494 -2.622,3.024 -2.828,3.4 -0.206,0.375 -1.649,1.986 -3.207,3.579 -1.557,1.593 -3.551,3.753 -4.429,4.8 -2.993,3.566 -17.219,17.441 -19.243,18.767 -0.577,0.378 -1.56,1.148 -2.185,1.712 -5.282,4.76 -7.823,6.751 -9.532,7.465 -0.788,0.329 -1.795,0.929 -2.238,1.334 -0.443,0.405 -1.615,1.141 -2.605,1.637 -0.99,0.496 -2.25,1.251 -2.8,1.677 -1.784,1.384 -10.13,6.296 -12.8,7.533 -1.43,0.663 -3.112,1.49 -3.737,1.837 -0.626,0.347 -2.786,1.219 -4.8,1.938 -7.079,2.525 -10.078,3.683 -11.701,4.516 -0.901,0.462 -3.268,1.299 -5.261,1.86 -1.993,0.56 -4.113,1.205 -4.712,1.432 -0.598,0.227 -3.026,0.684 -5.396,1.015 -2.37,0.33 -5.543,1.031 -7.051,1.557 -3.202,1.116 -5.695,1.592 -12.542,2.392 -2.75,0.321 -7.25,0.903 -10,1.293 -7.729,1.097 -26.502,1.017 -34.6,-0.146 -3.3,-0.474 -7.17,-0.979 -8.6,-1.122 -5.104,-0.509 -9.899,-1.406 -12.641,-2.364 -1.532,-0.536 -4.81,-1.256 -7.285,-1.601 -2.474,-0.345 -5.088,-0.874 -5.809,-1.175 -0.72,-0.301 -2.56,-0.859 -4.087,-1.239 -1.528,-0.38 -4.038,-1.284 -5.578,-2.009 -1.54,-0.724 -3.79,-1.63 -5,-2.013 -1.21,-0.383 -2.65,-0.932 -3.2,-1.221 -0.55,-0.288 -1.99,-0.831 -3.2,-1.206 -1.21,-0.375 -3.73,-1.385 -5.6,-2.243 -3.555,-1.632 -3.731,-1.725 -7.06,-3.7 -5.757,-3.416 -7.5,-4.483 -9.841,-6.022 -2.309,-1.518 -3.895,-2.489 -6.532,-4 -2.578,-1.477 -4.968,-3.27 -7.49,-5.618 -1.058,-0.986 -2.858,-2.487 -4,-3.337 -1.143,-0.85 -2.469,-1.973 -2.948,-2.495 -1.238,-1.35 -3.499,-3.439 -6.688,-6.179 -1.518,-1.304 -4.666,-4.531 -6.997,-7.171 -2.331,-2.64 -5.39,-5.97 -6.797,-7.4 -1.408,-1.43 -3.269,-3.558 -4.137,-4.729 -0.868,-1.171 -2.418,-3.002 -3.444,-4.069 -3.013,-3.133 -4.686,-5.282 -5.606,-7.202 -0.474,-0.99 -1.267,-2.38 -1.761,-3.09 -0.495,-0.709 -1.619,-2.474 -2.499,-3.922 -0.88,-1.448 -1.99,-3.207 -2.467,-3.91 -0.477,-0.703 -1.443,-2.358 -2.147,-3.678 -0.705,-1.32 -1.506,-2.67 -1.782,-3 -0.788,-0.942 -3.766,-7.474 -5.015,-11 -2.327,-6.569 -3.579,-9.808 -4.515,-11.677 -0.852,-1.704 -1.947,-5.077 -3.738,-11.523 -0.306,-1.1 -0.658,-3.08 -0.782,-4.4 -0.124,-1.32 -0.742,-4.02 -1.374,-6 -0.646,-2.021 -1.432,-5.88 -1.793,-8.8 -0.354,-2.86 -0.989,-7.81 -1.412,-11 -1.637,-12.353 -1.885,-22.899 -0.781,-33.22 1.306,-12.206 2.877,-22.595 3.823,-25.277 0.563,-1.596 1.192,-4.343 1.398,-6.103 0.206,-1.76 0.622,-4.1 0.924,-5.2 1.757,-6.393 3.254,-10.96 4.244,-12.945 0.618,-1.24 1.439,-3.245 1.823,-4.455 0.385,-1.21 0.839,-2.38 1.009,-2.6 0.17,-0.22 0.62,-1.48 0.999,-2.8 0.379,-1.32 1.266,-3.57 1.969,-5 0.704,-1.43 1.52,-3.23 1.813,-4 0.292,-0.77 0.928,-1.94 1.411,-2.6 0.484,-0.66 1.363,-2.1 1.954,-3.2 1.696,-3.156 3.684,-6.448 4.759,-7.882 0.544,-0.725 1.356,-2.05 1.805,-2.945 0.449,-0.894 1.088,-1.852 1.42,-2.127 0.332,-0.276 0.714,-1.005 0.85,-1.621 0.234,-1.066 2.195,-3.717 5.082,-6.87 0.728,-0.794 2.043,-2.369 2.923,-3.498 0.88,-1.13 2.86,-3.394 4.4,-5.031 1.54,-1.638 3.7,-4.024 4.8,-5.302 1.908,-2.217 7.932,-8.023 11.078,-10.677 0.813,-0.686 2.793,-2.518 4.4,-4.071 1.608,-1.554 3.234,-2.999 3.615,-3.212 0.38,-0.213 2,-1.578 3.599,-3.034 5.129,-4.67 7.187,-6.284 8.333,-6.535 0.616,-0.136 1.345,-0.518 1.621,-0.85 0.275,-0.332 1.233,-0.971 2.127,-1.42 0.895,-0.449 2.22,-1.261 2.945,-1.805 1.434,-1.075 4.726,-3.063 7.882,-4.759 1.1,-0.591 2.54,-1.47 3.2,-1.954 0.66,-0.483 1.83,-1.119 2.6,-1.411 0.77,-0.293 2.57,-1.109 4,-1.813 1.43,-0.703 3.68,-1.59 5,-1.969 1.32,-0.379 2.58,-0.829 2.8,-0.999 0.22,-0.17 1.39,-0.624 2.6,-1.009 1.21,-0.384 3.234,-1.215 4.498,-1.845 1.263,-0.631 3.873,-1.613 5.8,-2.184 1.926,-0.571 4.664,-1.383 6.083,-1.804 1.42,-0.422 3.76,-0.882 5.2,-1.021 1.441,-0.14 4.154,-0.757 6.029,-1.371 2.419,-0.793 6.255,-1.482 13.2,-2.373 18.841,-2.416 24.593,-2.744 34.99,-2"
         stroke="none"
         fill="#345c6c"
         fill-rule="evenodd" /><path
         id="path4"
         d="m 190,19.617 c -2.09,0.202 -5.6,0.637 -7.8,0.968 -2.2,0.332 -6.79,0.882 -10.2,1.223 -6.389,0.64 -8.248,0.986 -11,2.052 -0.88,0.341 -3.4,0.873 -5.6,1.182 -2.2,0.31 -5.35,0.996 -7,1.525 -1.65,0.53 -4.35,1.353 -6,1.83 -1.65,0.477 -3.407,1.128 -3.903,1.447 -0.497,0.318 -2.387,1.126 -4.2,1.795 -1.814,0.669 -4.917,1.814 -6.897,2.544 -5.023,1.854 -10.178,4.181 -11.6,5.237 -0.66,0.49 -2.1,1.372 -3.2,1.962 -3.319,1.777 -5.607,3.162 -7.04,4.261 -0.748,0.574 -2.305,1.522 -3.46,2.107 -1.155,0.585 -2.1,1.232 -2.1,1.438 0,0.206 -0.635,0.55 -1.412,0.764 -1.253,0.346 -5.511,3.368 -6.73,4.777 -1.035,1.195 -1.868,1.95 -3.829,3.471 -1.135,0.88 -3.54,2.984 -5.346,4.676 -1.806,1.692 -3.913,3.611 -4.683,4.265 -1.775,1.508 -10.883,10.518 -13,12.86 -4.946,5.473 -6.111,6.8 -7.2,8.2 -0.66,0.849 -1.794,2.186 -2.521,2.971 C 52.702,93.959 50,97.664 50,98.411 c 0,0.417 -0.338,1.08 -0.751,1.473 -0.413,0.394 -1.159,1.526 -1.658,2.516 -0.498,0.99 -1.375,2.412 -1.949,3.16 -1.099,1.434 -2.485,3.724 -4.26,7.04 -0.59,1.1 -1.472,2.54 -1.962,3.2 -1.056,1.422 -3.383,6.577 -5.237,11.6 -0.73,1.98 -1.875,5.083 -2.544,6.897 -0.669,1.813 -1.474,3.703 -1.79,4.2 -0.315,0.496 -0.885,1.983 -1.265,3.303 -0.381,1.32 -1.21,4.11 -1.844,6.2 -0.633,2.09 -1.402,5.6 -1.708,7.8 -0.307,2.2 -1.017,5.359 -1.578,7.021 -0.735,2.175 -1.251,5.22 -1.843,10.876 -0.453,4.321 -0.988,8.725 -1.189,9.786 -1.271,6.703 -1.493,22.284 -0.426,29.917 0.215,1.54 0.671,5.23 1.014,8.2 1.343,11.656 1.851,14.952 2.609,16.937 0.434,1.134 1.069,3.953 1.412,6.263 0.343,2.31 1.048,5.46 1.566,7 0.519,1.54 1.222,3.922 1.563,5.294 0.341,1.371 1.083,3.407 1.649,4.523 1.036,2.044 2.773,6.549 4.235,10.983 0.435,1.32 1.398,3.66 2.141,5.2 0.742,1.54 1.729,3.61 2.193,4.6 0.463,0.99 1.513,2.91 2.333,4.267 0.819,1.357 2.007,3.337 2.639,4.4 0.633,1.063 1.488,2.383 1.9,2.933 0.412,0.55 1.285,2.022 1.94,3.271 0.656,1.249 1.391,2.394 1.634,2.544 0.243,0.15 0.794,1.094 1.224,2.097 0.79,1.842 1.533,2.789 6.208,7.909 1.417,1.551 2.908,3.351 3.314,4 0.406,0.648 1.8,2.259 3.098,3.579 1.298,1.32 4.07,4.29 6.16,6.6 4.832,5.341 5.674,6.185 10.772,10.804 2.31,2.093 4.74,4.295 5.4,4.893 0.66,0.599 2.1,1.829 3.2,2.734 1.1,0.905 2.72,2.26 3.6,3.011 3.777,3.222 5.616,4.542 6.646,4.768 0.604,0.133 1.325,0.514 1.601,0.847 0.277,0.333 1.343,1.031 2.371,1.552 1.027,0.521 2.389,1.383 3.025,1.915 0.636,0.533 2.057,1.456 3.157,2.053 3.473,1.882 6.404,3.595 7.622,4.453 0.648,0.457 1.808,1.072 2.578,1.368 0.77,0.296 2.48,1.074 3.8,1.729 1.32,0.655 3.66,1.603 5.2,2.105 4.526,1.478 9.055,3.215 11.2,4.296 1.1,0.555 3.442,1.376 5.205,1.825 1.763,0.448 4.013,1.104 5,1.456 0.987,0.352 3.415,0.822 5.395,1.044 1.98,0.222 4.86,0.833 6.4,1.358 4.032,1.374 5.714,1.688 12.834,2.395 3.501,0.348 7.986,0.885 9.966,1.195 10.633,1.661 20.449,1.605 34.4,-0.197 3.3,-0.426 8.467,-1.049 11.481,-1.386 3.699,-0.412 6.366,-0.946 8.2,-1.641 1.496,-0.567 4.699,-1.293 7.119,-1.614 2.42,-0.321 5.66,-1.016 7.2,-1.543 1.54,-0.528 3.52,-1.084 4.4,-1.237 0.88,-0.152 2.688,-0.787 4.018,-1.411 2.354,-1.104 5.41,-2.283 12.782,-4.929 1.98,-0.71 4.05,-1.574 4.6,-1.919 0.55,-0.345 1.9,-0.95 3,-1.344 1.1,-0.393 2.333,-1 2.741,-1.348 0.408,-0.348 1.857,-1.262 3.222,-2.032 3.318,-1.873 4.783,-2.761 7.005,-4.249 1.026,-0.688 2.604,-1.627 3.507,-2.087 0.903,-0.461 1.919,-1.115 2.258,-1.454 0.339,-0.339 1.393,-0.951 2.342,-1.358 1.722,-0.741 3.838,-2.298 6.994,-5.146 0.918,-0.828 2.268,-1.985 3,-2.571 0.732,-0.586 2.501,-2.117 3.931,-3.402 1.43,-1.285 3.41,-3.056 4.4,-3.935 2.388,-2.12 10.584,-10.427 12.6,-12.771 0.88,-1.023 2.995,-3.294 4.7,-5.046 1.705,-1.753 3.1,-3.328 3.1,-3.501 0,-0.334 2.023,-2.647 4.795,-5.48 1.706,-1.744 3.83,-4.658 4.45,-6.106 0.412,-0.959 1.026,-2.022 1.365,-2.361 0.339,-0.339 0.993,-1.355 1.454,-2.258 0.46,-0.903 1.399,-2.481 2.087,-3.507 1.488,-2.222 2.376,-3.687 4.249,-7.005 0.77,-1.365 1.684,-2.814 2.032,-3.222 0.348,-0.408 0.955,-1.641 1.348,-2.741 0.394,-1.1 0.999,-2.45 1.344,-3 0.345,-0.55 1.209,-2.62 1.919,-4.6 2.698,-7.518 3.832,-10.442 4.976,-12.84 0.65,-1.361 1.181,-2.749 1.181,-3.085 0,-0.335 0.607,-2.559 1.348,-4.942 0.741,-2.383 1.476,-5.672 1.632,-7.308 0.156,-1.636 0.724,-4.147 1.264,-5.58 1.033,-2.744 1.932,-7.701 2.367,-13.045 0.143,-1.76 0.592,-5.63 0.998,-8.6 1.785,-13.075 1.845,-23.622 0.192,-34.2 -0.31,-1.98 -0.847,-6.465 -1.195,-9.966 -0.707,-7.12 -1.021,-8.802 -2.395,-12.834 -0.525,-1.54 -1.136,-4.42 -1.358,-6.4 -0.222,-1.98 -0.692,-4.408 -1.044,-5.395 -0.352,-0.987 -1.008,-3.237 -1.456,-5 -0.449,-1.763 -1.27,-4.105 -1.825,-5.205 -1.081,-2.145 -2.818,-6.674 -4.296,-11.2 -0.502,-1.54 -1.45,-3.88 -2.105,-5.2 -0.655,-1.32 -1.433,-3.03 -1.729,-3.8 -0.296,-0.77 -0.911,-1.93 -1.368,-2.578 -0.858,-1.218 -2.571,-4.149 -4.453,-7.622 -0.597,-1.1 -1.52,-2.521 -2.053,-3.157 -0.532,-0.636 -1.394,-1.998 -1.915,-3.025 -0.521,-1.028 -1.219,-2.094 -1.552,-2.371 -0.333,-0.276 -0.714,-0.997 -0.847,-1.601 -0.226,-1.03 -1.546,-2.869 -4.768,-6.646 -0.751,-0.88 -2.106,-2.5 -3.011,-3.6 -0.905,-1.1 -2.135,-2.54 -2.734,-3.2 -0.598,-0.66 -2.8,-3.09 -4.893,-5.4 -4.619,-5.098 -5.463,-5.94 -10.804,-10.772 -2.31,-2.09 -5.28,-4.862 -6.6,-6.16 -1.32,-1.298 -2.931,-2.692 -3.579,-3.098 -0.649,-0.406 -2.449,-1.897 -4,-3.314 -5.12,-4.675 -6.067,-5.418 -7.909,-6.208 -1.003,-0.43 -1.947,-0.981 -2.097,-1.224 -0.15,-0.243 -1.295,-0.978 -2.544,-1.634 -1.249,-0.655 -2.721,-1.528 -3.271,-1.94 -0.55,-0.412 -1.87,-1.267 -2.933,-1.9 -1.063,-0.632 -3.043,-1.82 -4.4,-2.639 -1.357,-0.82 -3.277,-1.87 -4.267,-2.333 -0.99,-0.464 -3.06,-1.451 -4.6,-2.193 -1.54,-0.743 -3.88,-1.706 -5.2,-2.141 -4.434,-1.462 -8.939,-3.199 -10.983,-4.235 -1.116,-0.566 -3.152,-1.308 -4.523,-1.649 -1.372,-0.341 -3.754,-1.044 -5.294,-1.563 -1.54,-0.518 -4.69,-1.223 -7,-1.566 -2.31,-0.343 -5.129,-0.978 -6.263,-1.412 -1.996,-0.762 -5.064,-1.234 -17.337,-2.665 -3.19,-0.372 -6.79,-0.822 -8,-1.001 -3.471,-0.514 -19.011,-0.738 -23.2,-0.336 m 17,0.764 c 6.144,1.331 8.931,1.679 17.416,2.171 7.985,0.463 9.81,0.684 11.072,1.338 1.954,1.011 2.696,1.182 8.3,1.917 3.335,0.437 4.981,0.842 5.758,1.416 0.688,0.509 2.699,1.09 5.467,1.579 2.409,0.426 4.442,0.964 4.519,1.195 0.216,0.648 2.012,1.448 4.868,2.167 1.43,0.361 3.103,1.022 3.717,1.47 0.614,0.448 2.3,1.062 3.747,1.365 1.499,0.314 3.015,0.912 3.524,1.39 0.492,0.462 2.357,1.289 4.146,1.838 2.046,0.629 3.401,1.278 3.655,1.753 0.222,0.414 1.318,1.057 2.436,1.428 1.118,0.371 2.138,0.951 2.267,1.287 0.129,0.337 1.376,1.13 2.771,1.763 1.396,0.632 2.537,1.325 2.537,1.539 0,0.214 0.945,0.862 2.1,1.44 1.155,0.578 2.46,1.367 2.9,1.754 0.44,0.386 1.673,1.027 2.739,1.425 1.067,0.397 2.033,0.968 2.148,1.267 0.115,0.3 1.043,1.104 2.061,1.787 1.019,0.684 2.493,1.893 3.276,2.687 2.377,2.41 4.373,4.043 4.942,4.043 0.296,0 1.02,0.63 1.607,1.4 0.587,0.77 1.335,1.4 1.661,1.4 0.326,0 0.953,0.611 1.394,1.357 0.44,0.747 1.328,1.576 1.973,1.843 0.645,0.268 1.282,0.831 1.416,1.254 0.134,0.422 0.725,1.076 1.313,1.453 0.589,0.378 2.273,1.858 3.743,3.29 1.47,1.432 2.91,2.818 3.2,3.081 0.29,0.262 1.337,1.4 2.327,2.529 0.99,1.129 2.655,2.922 3.7,3.986 1.045,1.064 1.9,2.119 1.9,2.344 0,0.225 0.363,0.524 0.807,0.665 0.443,0.141 1.172,0.972 1.618,1.847 0.446,0.874 1.08,1.693 1.408,1.819 0.328,0.126 0.884,0.785 1.236,1.466 0.352,0.68 1.044,1.555 1.539,1.944 0.494,0.389 1.452,1.565 2.128,2.614 0.675,1.05 1.589,2.13 2.029,2.4 0.44,0.271 1.004,1.261 1.252,2.2 0.249,0.94 0.858,2.158 1.354,2.708 0.496,0.55 1.287,1.847 1.759,2.883 0.472,1.035 1.189,2.06 1.594,2.276 0.404,0.217 0.951,1.115 1.215,1.996 0.264,0.882 0.988,2.111 1.609,2.732 0.621,0.621 1.359,1.845 1.641,2.721 0.281,0.875 0.927,1.952 1.435,2.392 0.559,0.484 1.256,1.943 1.766,3.697 0.463,1.593 1.267,3.355 1.786,3.915 0.608,0.656 1.098,1.891 1.376,3.471 0.238,1.35 0.857,3.098 1.375,3.885 0.519,0.788 1.265,2.75 1.659,4.361 0.424,1.737 1.128,3.421 1.731,4.137 0.807,0.959 1.126,1.999 1.546,5.029 0.364,2.634 0.84,4.351 1.531,5.53 0.812,1.386 1.106,2.71 1.546,6.966 0.441,4.262 0.713,5.484 1.436,6.462 0.988,1.336 1.27,3.539 2.016,15.747 0.228,3.74 0.698,7.88 1.043,9.2 1.465,5.601 1.672,16.095 0.389,19.731 -0.788,2.235 -1.367,7.383 -1.814,16.124 -0.425,8.332 -0.413,8.257 -1.832,11.345 -0.645,1.405 -1.045,3.356 -1.343,6.556 -0.338,3.628 -0.627,4.902 -1.419,6.253 -0.597,1.019 -1.164,2.872 -1.42,4.643 -0.621,4.303 -0.703,4.576 -1.754,5.825 -0.528,0.628 -1.265,2.393 -1.641,3.931 -0.375,1.536 -1.1,3.422 -1.612,4.192 -0.512,0.77 -1.125,2.48 -1.362,3.8 -0.236,1.32 -0.792,2.85 -1.234,3.4 -0.993,1.235 -1.347,2.006 -2.198,4.79 -0.369,1.204 -1.193,2.786 -1.833,3.514 -0.639,0.728 -1.162,1.671 -1.162,2.096 0,0.425 -0.535,1.381 -1.188,2.126 -0.654,0.744 -1.529,2.148 -1.946,3.119 -0.416,0.972 -1.066,2.023 -1.444,2.337 -0.378,0.313 -1.198,1.582 -1.822,2.818 -0.624,1.236 -1.418,2.483 -1.764,2.771 -0.347,0.287 -0.811,1.193 -1.032,2.013 -0.22,0.819 -1.034,2.193 -1.807,3.053 -6.479,7.2 -8.197,9.291 -8.197,9.977 0,0.311 -0.537,0.843 -1.194,1.183 -0.658,0.34 -1.308,1.07 -1.447,1.624 -0.139,0.554 -0.769,1.274 -1.399,1.6 -0.631,0.326 -1.428,1.137 -1.772,1.803 -0.345,0.666 -1.043,1.4 -1.552,1.632 -0.509,0.232 -1.217,1.034 -1.574,1.783 -0.357,0.749 -0.919,1.361 -1.25,1.361 -0.33,0 -1.073,0.714 -1.651,1.587 -0.578,0.873 -1.363,1.687 -1.745,1.808 -0.382,0.121 -0.894,0.658 -1.138,1.193 -0.244,0.536 -0.978,1.25 -1.632,1.588 -0.654,0.339 -1.299,0.96 -1.432,1.381 -0.134,0.421 -0.876,1.066 -1.649,1.433 -0.774,0.367 -1.569,1.096 -1.769,1.619 -0.199,0.524 -0.917,1.24 -1.596,1.591 -0.679,0.351 -1.438,1.084 -1.686,1.629 -0.248,0.545 -0.871,1.096 -1.384,1.224 -0.513,0.129 -1.352,0.733 -1.865,1.343 -0.513,0.609 -1.318,1.23 -1.788,1.38 -0.471,0.149 -1.221,0.784 -1.667,1.41 -0.446,0.626 -1.575,1.588 -2.51,2.138 -0.935,0.55 -2.096,1.457 -2.579,2.017 -0.484,0.559 -1.588,1.208 -2.453,1.441 -0.866,0.233 -1.81,0.707 -2.097,1.054 -0.288,0.346 -1.535,1.14 -2.771,1.764 -1.236,0.624 -2.505,1.444 -2.818,1.822 -0.314,0.378 -1.365,1.028 -2.337,1.444 -0.971,0.417 -2.375,1.292 -3.119,1.946 -0.745,0.653 -1.701,1.188 -2.126,1.188 -0.425,0 -1.368,0.523 -2.096,1.162 -0.728,0.64 -2.31,1.464 -3.514,1.833 -2.784,0.851 -3.555,1.205 -4.79,2.198 -0.55,0.442 -2.08,0.998 -3.4,1.234 -1.32,0.237 -3.03,0.85 -3.8,1.362 -0.77,0.512 -2.656,1.237 -4.192,1.612 -1.538,0.376 -3.303,1.113 -3.931,1.641 -1.248,1.05 -1.525,1.134 -5.797,1.75 -1.629,0.235 -3.794,0.878 -4.894,1.453 -1.575,0.824 -2.924,1.115 -6.68,1.443 -3.907,0.34 -5.082,0.605 -6.924,1.559 -2.117,1.096 -2.585,1.168 -10.2,1.557 -8.861,0.452 -14.008,1.029 -16.251,1.82 -3.636,1.283 -14.13,1.076 -19.731,-0.389 -1.32,-0.345 -5.46,-0.815 -9.2,-1.043 -12.208,-0.746 -14.411,-1.028 -15.747,-2.016 -0.978,-0.723 -2.2,-0.995 -6.462,-1.436 -4.256,-0.44 -5.58,-0.734 -6.966,-1.546 -1.179,-0.691 -2.896,-1.167 -5.53,-1.531 -3.03,-0.42 -4.07,-0.739 -5.029,-1.546 -0.716,-0.603 -2.4,-1.307 -4.137,-1.731 -1.611,-0.394 -3.573,-1.14 -4.361,-1.659 -0.787,-0.518 -2.535,-1.137 -3.885,-1.375 -1.58,-0.278 -2.815,-0.768 -3.471,-1.376 -0.56,-0.519 -2.322,-1.323 -3.915,-1.786 -1.754,-0.51 -3.213,-1.207 -3.697,-1.766 -0.44,-0.508 -1.517,-1.154 -2.392,-1.435 -0.876,-0.282 -2.1,-1.02 -2.721,-1.641 -0.621,-0.621 -1.85,-1.345 -2.732,-1.609 -0.881,-0.264 -1.779,-0.811 -1.996,-1.215 -0.216,-0.405 -1.241,-1.122 -2.276,-1.594 -1.036,-0.472 -2.333,-1.263 -2.883,-1.759 -0.55,-0.496 -1.768,-1.105 -2.708,-1.354 -0.939,-0.248 -1.929,-0.812 -2.2,-1.252 -0.27,-0.44 -1.35,-1.354 -2.4,-2.029 -1.049,-0.676 -2.225,-1.634 -2.614,-2.128 -0.389,-0.495 -1.264,-1.187 -1.944,-1.539 -0.681,-0.352 -1.34,-0.908 -1.466,-1.236 -0.126,-0.328 -0.945,-0.962 -1.819,-1.408 -0.875,-0.446 -1.706,-1.175 -1.847,-1.618 -0.141,-0.444 -0.44,-0.807 -0.665,-0.807 -0.225,0 -1.28,-0.855 -2.344,-1.9 -1.064,-1.045 -2.857,-2.71 -3.986,-3.7 -1.129,-0.99 -2.267,-2.037 -2.529,-2.327 -0.263,-0.29 -1.649,-1.73 -3.081,-3.2 -1.432,-1.47 -2.912,-3.154 -3.29,-3.743 -0.377,-0.588 -1.031,-1.179 -1.453,-1.313 -0.423,-0.134 -0.986,-0.771 -1.254,-1.416 -0.267,-0.645 -1.096,-1.533 -1.843,-1.973 -0.746,-0.441 -1.357,-1.068 -1.357,-1.394 0,-0.326 -0.63,-1.074 -1.4,-1.661 -0.77,-0.587 -1.4,-1.311 -1.4,-1.607 0,-0.569 -1.633,-2.565 -4.043,-4.942 -0.794,-0.783 -2.003,-2.257 -2.687,-3.276 -0.683,-1.018 -1.487,-1.946 -1.787,-2.061 -0.299,-0.115 -0.87,-1.081 -1.267,-2.148 -0.398,-1.066 -1.039,-2.299 -1.425,-2.739 -0.387,-0.44 -1.176,-1.745 -1.754,-2.9 -0.578,-1.155 -1.226,-2.1 -1.44,-2.1 -0.214,0 -0.907,-1.141 -1.539,-2.537 -0.633,-1.395 -1.426,-2.642 -1.763,-2.771 -0.336,-0.129 -0.916,-1.149 -1.287,-2.267 -0.371,-1.118 -1.014,-2.214 -1.428,-2.436 -0.475,-0.254 -1.124,-1.609 -1.753,-3.655 -0.549,-1.789 -1.376,-3.654 -1.838,-4.146 -0.478,-0.509 -1.076,-2.025 -1.39,-3.524 -0.303,-1.447 -0.917,-3.133 -1.365,-3.747 -0.448,-0.614 -1.109,-2.287 -1.47,-3.717 -0.719,-2.856 -1.519,-4.652 -2.167,-4.868 -0.231,-0.077 -0.769,-2.11 -1.195,-4.519 -0.489,-2.768 -1.07,-4.779 -1.579,-5.467 -0.574,-0.777 -0.979,-2.423 -1.416,-5.758 -0.735,-5.604 -0.906,-6.346 -1.917,-8.3 -0.654,-1.262 -0.875,-3.087 -1.338,-11.072 -0.305,-5.258 -0.84,-10.967 -1.19,-12.688 -0.349,-1.72 -0.817,-4.028 -1.039,-5.128 -0.506,-2.501 -0.201,-14.013 0.411,-15.51 0.78,-1.909 1.251,-5.904 1.821,-15.442 0.465,-7.788 0.672,-9.427 1.332,-10.547 1.028,-1.742 1.239,-2.665 1.901,-8.333 0.417,-3.576 0.759,-5.028 1.361,-5.794 0.797,-1.013 1.366,-3.231 1.865,-7.265 0.175,-1.412 0.622,-2.548 1.379,-3.5 0.701,-0.882 1.357,-2.459 1.753,-4.211 0.348,-1.541 1.015,-3.318 1.482,-3.95 0.467,-0.632 1.103,-2.362 1.414,-3.845 0.347,-1.655 0.95,-3.153 1.562,-3.88 0.548,-0.652 1.102,-1.666 1.232,-2.254 0.554,-2.51 1.115,-3.814 2.155,-5.003 0.609,-0.696 1.229,-1.825 1.377,-2.509 0.149,-0.683 0.88,-1.908 1.624,-2.72 0.744,-0.813 1.474,-2.026 1.621,-2.695 0.147,-0.669 0.719,-1.605 1.27,-2.079 0.552,-0.475 1.405,-1.763 1.896,-2.863 0.49,-1.1 1.182,-2.239 1.536,-2.532 0.354,-0.293 0.86,-1.193 1.125,-2 0.264,-0.807 1.191,-2.278 2.06,-3.268 0.869,-0.99 1.834,-2.29 2.144,-2.888 C 54.955,92.913 55.565,92.233 56,92 c 0.435,-0.233 1.088,-0.997 1.45,-1.697 0.362,-0.7 1.06,-1.589 1.55,-1.975 0.491,-0.385 1.118,-1.247 1.394,-1.914 0.277,-0.668 0.757,-1.214 1.068,-1.214 0.311,0 0.941,-0.637 1.4,-1.415 0.459,-0.778 1.327,-1.669 1.93,-1.981 0.602,-0.311 1.32,-1.109 1.595,-1.772 0.274,-0.663 0.827,-1.309 1.227,-1.436 0.4,-0.128 1.096,-0.855 1.545,-1.617 0.45,-0.762 1.27,-1.591 1.822,-1.843 0.552,-0.252 1.108,-0.786 1.236,-1.188 0.127,-0.403 0.745,-1.035 1.373,-1.406 0.628,-0.371 1.334,-1.096 1.569,-1.611 0.235,-0.515 1.042,-1.231 1.795,-1.59 0.752,-0.358 1.555,-1.062 1.783,-1.563 0.229,-0.502 0.92,-1.153 1.536,-1.448 0.616,-0.296 1.346,-1.008 1.622,-1.584 0.276,-0.576 1.051,-1.275 1.722,-1.553 0.671,-0.278 1.487,-1.02 1.812,-1.649 0.325,-0.629 0.84,-1.144 1.143,-1.144 0.578,0 2.763,-1.687 5.858,-4.523 3.655,-3.349 5.799,-4.959 7.238,-5.433 0.807,-0.267 1.707,-0.775 2,-1.129 0.293,-0.354 1.432,-1.046 2.532,-1.536 1.1,-0.491 2.388,-1.344 2.863,-1.896 0.474,-0.551 1.41,-1.123 2.079,-1.27 0.669,-0.147 1.882,-0.877 2.695,-1.621 0.812,-0.744 2.037,-1.475 2.72,-1.624 0.684,-0.148 1.813,-0.768 2.509,-1.377 1.189,-1.04 2.493,-1.601 5.003,-2.155 0.588,-0.13 1.602,-0.684 2.254,-1.232 0.727,-0.612 2.225,-1.215 3.88,-1.562 1.483,-0.311 3.213,-0.947 3.845,-1.414 0.632,-0.467 2.409,-1.134 3.95,-1.482 1.747,-0.395 3.329,-1.052 4.205,-1.748 1.104,-0.878 2.134,-1.22 4.82,-1.601 1.973,-0.28 4.21,-0.892 5.296,-1.449 1.045,-0.536 3.214,-1.141 4.881,-1.363 6.131,-0.815 8.017,-1.222 9.377,-2.025 1.207,-0.712 2.652,-0.898 10.709,-1.382 10.262,-0.616 11.881,-0.788 15.114,-1.6 1.21,-0.304 2.56,-0.627 3,-0.719 1.525,-0.317 12.008,-0.223 13.6,0.122"
         stroke="none"
         fill="#4c8494"
         fill-rule="evenodd" /></g><g
       id="g1"
       transform="matrix(0.97161418,0,0,0.97161418,7.5846926,69.9017)"><path
         d="m 60,120 h 80 m 0,-40 H 60 M 100,50 135.355,64.645 150,100 135.355,135.355 100,150 64.645,135.355 50,100 64.645,64.645 Z"
         stroke-width="2"
         stroke="#dee2e6"
         fill="none"
         id="path1-7"
         style="display:none" /><path
         d="M 25,50 H 175 V 150 H 25 Z"
         stroke-width="4"
         stroke="#dee2e6"
         fill="#80e0ff"
         fill-opacity="0"
         id="path2-5"
         style="display:none" /><path
         d="m 90,105 h 20 v 0 m -25,15 15,-30 15,30 M 60,80 85,90 V 80 l 15,10 15,-10 v 10 l 25,-10"
         stroke-width="4"
         stroke="#000000"
         fill="none"
         id="path3-3"
         style="display:inline" /><path
         d="m 85,48 v -8 h 30 v 8 l -15,-2 z"
         stroke-width="4"
         stroke="#dee2e6"
         fill="#dee2e6"
         id="path4-5"
         style="display:none" /></g><g
       id="g3"
       transform="matrix(0.91646591,0,0,0.91646591,13.611914,60.101511)"><path
         d="m 60,120 h 80 m 0,-40 H 60 M 100,50 135.355,64.645 150,100 135.355,135.355 100,150 64.645,135.355 50,100 64.645,64.645 Z"
         stroke-width="2"
         stroke="#dee2e6"
         fill="none"
         id="path1-2"
         style="display:none" /><path
         d="M 25,50 H 175 V 150 H 25 Z"
         stroke-width="4"
         stroke="#dee2e6"
         fill="#80e0ff"
         fill-opacity="0"
         id="path2-7"
         style="display:none" /><path
         d="m 85,48 v -8 h 30 v 8 l -15,-2 z"
         stroke-width="4"
         stroke="#dee2e6"
         fill="#dee2e6"
         id="path3-0"
         style="display:none" /><text
         x="100"
         y="77"
         text-anchor="middle"
         font-size="30px"
         font-family="Arial"
         font-weight="bold"
         stroke-width="4"
         stroke="none"
         fill="#000000"
         id="text3">NA</text></g><g
       id="g4"
       transform="matrix(1.4611293,0,0,1.4611293,-42.198095,25.954412)"
       style="fill:none"><path
         d="m 60,120 h 80 m 0,-40 H 60 M 100,50 135.355,64.645 150,100 135.355,135.355 100,150 64.645,135.355 50,100 64.645,64.645 Z"
         stroke-width="2"
         stroke="#dee2e6"
         fill="none"
         id="path1-9"
         style="display:none;fill:none" /><path
         d="M 25,50 H 175 V 150 H 25 Z"
         stroke-width="4"
         stroke="#dee2e6"
         fill="#80e0ff"
         fill-opacity="0"
         id="path2-3"
         style="display:none;fill:none" /><circle
         cx="70"
         cy="125"
         r="5"
         stroke-width="4"
         stroke="#000000"
         fill="none"
         id="circle2"
         style="fill:none" /><circle
         cx="100"
         cy="125"
         r="5"
         stroke-width="4"
         stroke="#000000"
         fill="none"
         id="circle3"
         style="display:none;fill:none" /><circle
         cx="130"
         cy="125"
         r="5"
         stroke-width="4"
         stroke="#000000"
         fill="none"
         id="circle4"
         style="fill:none" /></g><rect
       style="fill:#000000;fill-opacity:1;stroke-width:0.281624"
       id="rect5"
       width="113.11644"
       height="2.5904527"
       x="48.386475"
       y="197.75478" /></g></svg>
